<?xml version="1.0" encoding="UTF-8" standalone="no"?>
<!-- Created with Inkscape (http://www.inkscape.org/) -->

<svg
   xmlns:svg="http://www.w3.org/2000/svg"
   xmlns="http://www.w3.org/2000/svg"
   version="1.1"
   width="687"
   height="222"
   id="svg4300">
  <title
     id="title3591">The CentOS Logo Horizontal Version Registered Trademark</title>
  <defs
     id="defs4302">
    <clipPath
       id="clipPath4429">
      <g
         transform="matrix(0.9947658,0,0,1,1.7860989,0)"
         id="g4431">
        <path
           d="m 322.54143,2800.9375 -4.43505,5.7298 -4.43495,-5.7298 0,-43.1429 -18.93972,0 23.37467,-25.5367 23.13125,25.5367 -18.6962,0 0,43.1429 z"
           id="path4433"
           style="fill:#efa724;fill-opacity:1;fill-rule:evenodd;stroke:none;stroke-width:30;marker:none;visibility:visible;display:inline;overflow:visible" />
      </g>
    </clipPath>
  </defs>
  <g
     transform="translate(-64.032001,-432.25134)"
     id="layer1">
    <g
       transform="matrix(1.0008826,0,0,1.0094534,-0.05651152,-6.184848)"
       id="g5189">
      <rect
         width="686.39417"
         height="219.92101"
         x="64.031998"
         y="434.33029"
         id="rect5183"
         style="fill:#ffffff;fill-opacity:0;stroke:none" />
      <path
         d="m 351.13,584.66227 -34.71949,0 c -3.52066,0 -7.00385,-0.50528 -10.44953,-1.51602 -6.66676,-2.09887 -11.94773,-6.91879 -15.84289,-14.45961 -3.52066,-6.84107 -5.28098,-14.80943 -5.28098,-23.90502 0,-8.7845 1.57305,-16.5585 4.71918,-23.32193 3.4457,-7.46294 8.35214,-12.55489 14.71925,-15.27585 4.94385,-2.0989 10.00008,-3.14837 15.16873,-3.14846 l 31.46101,0 0,15.62568 -32.69698,0 c -5.31845,8e-5 -9.17617,2.99305 -11.57318,8.97897 -1.8727,4.66444 -2.80902,10.76698 -2.80902,18.30771 0,6.3747 1.19849,11.77761 3.59556,16.20875 2.77152,5.20858 6.66672,7.81288 11.68549,7.81284 l 32.02285,-0.11668 0,14.80955 m 57.82368,0.34978 -27.41605,0 c -6.66675,0 -12.47205,-2.9541 -17.41591,-8.8623 -4.86895,-5.98606 -7.30345,-12.86602 -7.30345,-20.64001 0,-8.47362 2.6592,-15.78115 7.97763,-21.92263 5.39327,-6.21915 11.38583,-9.32871 17.97768,-9.32876 l 26.06778,0 0,12.47721 -19.10137,0 c -2.39706,6e-5 -4.45698,0.23316 -6.17984,0.69967 -1.64803,0.38873 -3.18358,1.20502 -4.60682,2.44879 -2.62178,2.33226 -3.93263,5.48072 -3.93261,9.44538 l 33.70825,0 0,12.59386 -33.59586,0 c -3e-5,1.86578 0.18723,3.45944 0.56175,4.781 0.44946,1.24385 1.31088,2.52655 2.58431,3.84814 1.27342,1.24383 2.77155,2.099 4.49441,2.56536 1.79777,0.38876 3.97009,0.58322 6.517,0.58322 l 19.6631,0 0,11.31107 m 64.07377,-0.34978 -15.61816,0 0,-39.76403 c -5e-5,-1.0106 -0.22473,-1.90459 -0.67413,-2.68201 -0.4495,-0.85509 -1.08621,-1.67136 -1.91018,-2.44882 -1.49816,-1.32151 -3.22101,-1.98231 -5.16856,-1.98234 l -15.28108,0 0,46.8772 -15.61816,0 0,-60.40392 29.88797,0 c 5.31838,5e-5 9.17611,0.31099 11.57315,0.93285 3.74532,0.93296 6.74163,2.99303 8.9889,6.18032 2.54677,3.73155 3.8202,7.81291 3.82025,12.24402 l 0,41.04673 m 44.85658,-47.81009 -15.16873,0 0,27.40327 c -1e-5,2.48771 0.82394,4.5478 2.47193,6.18034 1.87265,1.63255 4.34458,2.44879 7.41584,2.44879 l 4.60678,0 0,11.77769 -14.49455,0 c -4.34464,0 -8.05255,-1.63263 -11.12372,-4.89758 -1.79779,-1.94353 -2.95883,-4.08149 -3.4832,-6.4137 -0.52436,-2.33214 -0.78652,-5.09191 -0.78648,-8.27924 l 0,-28.21957 -9.88777,0 0,-12.59383 9.88777,0 0,-21.22295 15.3934,0 0,21.22295 15.16873,0 0,12.59383 m 91.69172,6.87996 c -1.1e-4,15.85896 -4.2324,27.20897 -12.69682,34.05011 -6.89154,5.51949 -16.92909,8.2793 -30.11271,8.2793 -14.60693,0 -25.39356,-3.18727 -32.35992,-9.56201 -7.64052,-6.99662 -11.46077,-18.23001 -11.46077,-33.70026 0,-12.67155 3.40825,-22.54448 10.22483,-29.61886 7.41577,-7.69617 18.50202,-11.5443 33.25878,-11.54436 16.25484,6e-5 27.71559,3.69273 34.38243,11.07791 5.84269,6.53019 8.76407,16.86959 8.76418,31.01817 m -20.00029,-0.46644 c -6e-5,-8.00713 -1.8353,-14.3818 -5.50566,-19.12397 -4.11996,-5.28626 -10.2249,-7.9294 -18.31484,-7.92949 -7.94018,9e-5 -13.93274,2.83758 -17.9777,8.5125 -3.37088,4.74221 -5.05626,10.92251 -5.05624,18.54096 -2e-5,8.78465 1.34833,15.27594 4.045,19.47384 3.7453,5.83049 10.67424,8.74573 20.78674,8.7457 8.53935,3e-5 14.53192,-2.83745 17.97772,-8.51248 2.6966,-4.43112 4.04492,-11.00015 4.04498,-19.70706 m 109.9398,16.09214 c -9e-5,7.15209 -2.28475,13.17692 -6.85397,18.07461 -4.56947,4.8976 -10.37473,7.34641 -17.41596,7.34641 l -55.6186,-0.11668 0,-14.69294 45.84322,0 c 3.07114,3e-5 5.65543,-0.73851 7.75289,-2.21557 2.39698,-1.71026 3.59549,-4.04246 3.59554,-6.99657 -5e-5,-6.91883 -4.71919,-10.37825 -14.15746,-10.37827 l -23.14636,0 c -6.66675,2e-5 -12.50949,-2.13782 -17.52826,-6.41355 -5.01877,-4.27564 -7.52818,-9.71742 -7.52818,-16.32535 0,-7.30749 2.43448,-13.21569 7.30345,-17.72466 4.94386,-4.58657 11.42334,-6.87989 19.4384,-6.87997 l 53.14671,0 0,13.99313 -46.85447,0 c -2.09742,7e-5 -4.23231,0.93296 -6.40458,2.79867 -2.09741,1.78804 -3.14613,3.92589 -3.14611,6.41353 -2e-5,2.79867 1.01122,5.16974 3.03376,7.11319 2.09738,1.86579 4.60679,2.79867 7.52817,2.79863 l 25.5059,0 c 7.9401,4e-5 14.15736,2.13787 18.65194,6.41354 4.56922,4.19798 6.85388,9.79522 6.85397,16.7918"
         id="text5083-9"
         style="font-size:72.67242432px;font-style:normal;font-variant:normal;font-weight:200;font-stretch:normal;text-align:start;line-height:125%;writing-mode:lr-tb;text-anchor:start;fill:#000000;fill-opacity:1;stroke:none;display:inline;font-family:Denmark;-inkscape-font-specification:Denmark Ultra-Light" />
      <g
         transform="matrix(1.0627274,0,0,1.0627279,198.76477,-528.51594)"
         id="g3664">
        <g
           transform="matrix(0,-1,1,0,-1934.5199,1337.4805)"
           id="g12802">
          <g
             transform="translate(16.279512,-899.16723)"
             id="g12804">
            <g
               transform="matrix(1.0666663,0,0,1,-26.935596,-4.1328125e-5)"
               id="g12806">
              <path
                 d="m 323.36653,2798.1614 -5.40616,5.8005 -5.40616,-5.8005 0,-40.8261 -18.01333,0 23.41949,-24.8979 23.02487,24.8979 -17.6187,0 -10e-6,40.8261 z"
                 id="path12808"
                 style="fill:#932279;fill-opacity:1;fill-rule:evenodd;stroke:none;stroke-width:30;marker:none;visibility:visible;display:inline;overflow:visible" />
            </g>
            <g
               transform="matrix(1.0722788,0,0,1,-28.850792,-4.1328125e-5)"
               clip-path="url(#clipPath4429)"
               id="g12812" />
          </g>
        </g>
        <g
           transform="translate(-351.30671,-902.55818)"
           id="g12768">
          <g
             transform="translate(16.279512,-899.16723)"
             id="g12770">
            <g
               transform="matrix(1.0666663,0,0,1,-26.935596,-4.1328125e-5)"
               id="g12772">
              <path
                 d="m 323.36653,2798.1614 -5.40616,5.8005 -5.40616,-5.8005 0,-40.8261 -18.01333,0 23.41949,-24.8979 23.02487,24.8979 -17.6187,0 -10e-6,40.8261 z"
                 id="path12774"
                 style="fill:#efa724;fill-opacity:1;fill-rule:evenodd;stroke:none;stroke-width:30;marker:none;visibility:visible;display:inline;overflow:visible" />
            </g>
            <g
               transform="matrix(1.0722788,0,0,1,-28.850792,-4.1328125e-5)"
               clip-path="url(#clipPath4429)"
               id="g12778" />
          </g>
        </g>
        <g
           transform="matrix(0,1,-1,0,2787.8992,696.93451)"
           id="g12780">
          <g
             transform="matrix(1.0666663,0,0,1,-26.935596,-4.1328125e-5)"
             id="g12782">
            <path
               d="m 323.36653,2798.1614 -5.40616,5.8005 -5.40616,-5.8005 0,-40.8261 -18.01333,0 23.41949,-24.8979 23.02487,24.8979 -17.6187,0 -10e-6,40.8261 z"
               id="path12784"
               style="fill:#262577;fill-opacity:1;fill-rule:evenodd;stroke:none;stroke-width:30;marker:none;visibility:visible;display:inline;overflow:visible" />
          </g>
          <g
             transform="matrix(1.0722788,0,0,1,-28.850792,-4.1328125e-5)"
             clip-path="url(#clipPath4429)"
             id="g12788" />
        </g>
        <g
           transform="matrix(-1,0,0,-1,305.51863,2920.6937)"
           id="g12790">
          <g
             transform="translate(16.279512,-899.16723)"
             id="g12792">
            <g
               transform="matrix(1.0666663,0,0,1,-26.935596,-4.1328125e-5)"
               id="g12794">
              <path
                 d="m 323.36653,2798.1614 -5.40616,5.8005 -5.40616,-5.8005 0,-40.8261 -18.01333,0 23.41949,-24.8979 23.02487,24.8979 -17.6187,0 -10e-6,40.8261 z"
                 id="path12796"
                 style="fill:#9ccd2a;fill-opacity:1;fill-rule:evenodd;stroke:none;stroke-width:30;marker:none;visibility:visible;display:inline;overflow:visible" />
            </g>
            <g
               transform="matrix(1.0722788,0,0,1,-28.850792,-4.1328125e-5)"
               clip-path="url(#clipPath4429)"
               id="g12800" />
          </g>
        </g>
        <g
           transform="translate(-749.79982,-1331.6428)"
           id="g12742">
          <path
             d="m 671.98437,2285.7893 49.60645,0 0,49.6065 -49.60645,0 0,-49.6065 z"
             id="rect12744"
             style="fill:#9ccd2a;fill-opacity:1;stroke:#ffffff;stroke-width:3.54330707;stroke-linecap:butt;stroke-linejoin:miter;stroke-miterlimit:4;stroke-opacity:1;stroke-dashoffset:0" />
          <path
             d="m 732.22076,2285.7893 49.60645,0 0,49.6065 -49.60645,0 0,-49.6065 z"
             id="rect12746"
             style="fill:#932279;fill-opacity:1;stroke:#ffffff;stroke-width:3.54330707;stroke-linecap:butt;stroke-linejoin:miter;stroke-miterlimit:4;stroke-opacity:1;stroke-dashoffset:0" />
          <path
             d="m 732.22076,2346.0256 49.60645,0 0,49.6065 -49.60645,0 0,-49.6065 z"
             id="rect12748"
             style="fill:#efa724;fill-opacity:1;stroke:#ffffff;stroke-width:3.54330707;stroke-linecap:butt;stroke-linejoin:miter;stroke-miterlimit:4;stroke-opacity:1;stroke-dashoffset:0" />
          <path
             d="m 671.98437,2346.0256 49.60645,0 0,49.6065 -49.60645,0 0,-49.6065 z"
             id="rect12750"
             style="fill:#262577;fill-opacity:1;stroke:#ffffff;stroke-width:3.54330707;stroke-linecap:butt;stroke-linejoin:miter;stroke-miterlimit:4;stroke-opacity:1;stroke-dashoffset:0" />
        </g>
        <path
           d="m -784.62878,642.40875 49.60644,0 0,49.60645 -49.60644,0 0,-49.60645 z"
           transform="matrix(0.7071068,-0.7071068,0.7071068,0.7071068,0,0)"
           id="rect12760"
           style="fill:none;stroke:#ffffff;stroke-width:3.54330707;stroke-linecap:butt;stroke-linejoin:miter;stroke-miterlimit:4;stroke-opacity:1;stroke-dashoffset:0" />
        <path
           d="m -724.39233,642.40875 49.60645,0 0,49.60645 -49.60645,0 0,-49.60645 z"
           transform="matrix(0.7071068,-0.7071068,0.7071068,0.7071068,0,0)"
           id="rect12762"
           style="fill:none;stroke:#ffffff;stroke-width:3.54306793;stroke-linecap:butt;stroke-linejoin:miter;stroke-miterlimit:4;stroke-opacity:1;stroke-dasharray:none;stroke-dashoffset:0" />
        <path
           d="m -15.377623,1009.0679 35.077058,-35.0771 35.077058,35.0771 -35.077058,35.077 -35.077058,-35.077 z"
           id="rect12764"
           style="fill:none;stroke:#ffffff;stroke-width:3.54330707;stroke-linecap:butt;stroke-linejoin:miter;stroke-miterlimit:4;stroke-opacity:1;stroke-dashoffset:0" />
        <path
           d="m -784.62878,702.64508 49.60644,0 0,49.60645 -49.60644,0 0,-49.60645 z"
           transform="matrix(0.7071068,-0.7071068,0.7071068,0.7071068,0,0)"
           id="rect12766"
           style="fill:none;stroke:#ffffff;stroke-width:3.54330707;stroke-linecap:butt;stroke-linejoin:miter;stroke-miterlimit:4;stroke-opacity:1;stroke-dashoffset:0" />
      </g>
      <g
         transform="matrix(1.0372031,0,0,1.0283967,50.480545,-208.01046)"
         id="text5282"
         style="font-size:40px;font-style:normal;font-variant:normal;font-weight:bold;font-stretch:normal;text-align:start;line-height:125%;writing-mode:lr-tb;text-anchor:start;fill:#000000;fill-opacity:1;stroke:none;font-family:Monospace;-inkscape-font-specification:Monospace Bold">
        <path
           d="m 637.78595,665.96924 c 1.65363,2e-5 3.19009,0.29299 4.60937,0.8789 1.41926,0.58597 2.71483,1.46487 3.88672,2.63672 1.17186,1.18492 2.05727,2.49351 2.65625,3.92578 0.59894,1.43231 0.89842,2.96877 0.89844,4.60938 -2e-5,1.62762 -0.2995,3.15105 -0.89844,4.57031 -0.58596,1.41928 -1.47137,2.72136 -2.65625,3.90625 -1.18491,1.1849 -2.48699,2.07683 -3.90625,2.67578 -1.41928,0.58594 -2.94923,0.87891 -4.58984,0.87891 -1.62761,0 -3.15105,-0.29297 -4.57031,-0.87891 -1.41928,-0.59895 -2.72136,-1.49088 -3.90625,-2.67578 -1.1849,-1.18489 -2.07683,-2.48697 -2.67578,-3.90625 -0.58594,-1.41926 -0.87891,-2.94269 -0.87891,-4.57031 0,-1.64061 0.29948,-3.17707 0.89844,-4.60938 0.59895,-1.43227 1.48437,-2.74086 2.65625,-3.92578 1.17187,-1.17185 2.46744,-2.05075 3.88672,-2.63672 1.41926,-0.58591 2.9492,-0.87888 4.58984,-0.8789 m -0.54688,8.08594 -1.25,0 0,3.20312 1.25,0 c 0.74218,2e-5 1.29556,-0.13019 1.66016,-0.39062 0.37759,-0.26041 0.56639,-0.65103 0.56641,-1.17188 -2e-5,-0.55988 -0.18231,-0.97003 -0.54688,-1.23047 -0.36459,-0.27342 -0.92449,-0.41014 -1.67969,-0.41015 m 0.35157,-2.16797 c 1.73175,2e-5 3.01431,0.28648 3.84765,0.85937 0.84634,0.57294 1.26952,1.44533 1.26953,2.61719 -10e-6,0.84637 -0.25392,1.54949 -0.76171,2.10937 -0.50783,0.54689 -1.22398,0.89846 -2.14844,1.05469 0.49478,0.18231 0.91795,0.45574 1.26953,0.82031 0.36457,0.3646 0.70311,0.8659 1.01562,1.50391 l 1.54297,3.24219 -3.35937,0 -1.23047,-2.59766 c -0.35158,-0.75519 -0.71616,-1.28254 -1.09375,-1.58203 -0.3646,-0.31249 -0.81381,-0.48176 -1.34766,-0.50781 l -0.60547,0 0,4.6875 -3.20312,0 0,-12.20703 4.80469,0 m 0.19531,-3.39844 c -1.28907,2e-5 -2.48699,0.2344 -3.59375,0.70312 -1.10678,0.45576 -2.13542,1.15888 -3.08594,2.10938 -0.92448,0.9245 -1.6211,1.94663 -2.08984,3.06641 -0.46875,1.1198 -0.70313,2.33725 -0.70313,3.65234 0,1.27605 0.23438,2.46746 0.70313,3.57422 0.46874,1.10678 1.16536,2.14193 2.08984,3.10547 0.9375,0.92448 1.95963,1.6211 3.06641,2.08984 1.11978,0.46876 2.32421,0.70313 3.61328,0.70313 1.28905,0 2.49347,-0.23437 3.61328,-0.70313 1.11978,-0.46874 2.14191,-1.16536 3.06641,-2.08984 0.93748,-0.96354 1.6406,-1.99869 2.10937,-3.10547 0.46873,-1.10676 0.70311,-2.29817 0.70313,-3.57422 -2e-5,-1.31509 -0.2344,-2.53254 -0.70313,-3.65234 -0.46877,-1.11978 -1.17189,-2.14191 -2.10937,-3.06641 -0.93752,-0.9505 -1.95965,-1.65362 -3.06641,-2.10938 -1.09376,-0.46872 -2.29819,-0.7031 -3.61328,-0.70312"
           id="path5287" />
      </g>
    </g>
  </g>
</svg>
