<?xml version="1.0" encoding="UTF-8" standalone="no"?>
<!-- Created with Inkscape (http://www.inkscape.org/) -->

<svg
   xmlns:svg="http://www.w3.org/2000/svg"
   xmlns="http://www.w3.org/2000/svg"
   version="1.1"
   width="876"
   height="222"
   id="svg4300">
  <title
     id="title3593">The CentOS Logo Horizontal Version With Tagline</title>
  <defs
     id="defs4302">
    <clipPath
       id="clipPath4429">
      <g
         transform="matrix(0.9947658,0,0,1,1.7860989,0)"
         id="g4431">
        <path
           d="m 322.54143,2800.9375 -4.43505,5.7298 -4.43495,-5.7298 0,-43.1429 -18.93972,0 23.37467,-25.5367 23.13125,25.5367 -18.6962,0 0,43.1429 z"
           id="path4433"
           style="fill:#efa724;fill-opacity:1;fill-rule:evenodd;stroke:none;stroke-width:30;marker:none;visibility:visible;display:inline;overflow:visible" />
      </g>
    </clipPath>
  </defs>
  <g
     transform="translate(-64.032001,-432.25134)"
     id="layer1">
    <g
       transform="matrix(1.0008826,0,0,1.0094534,-0.05651152,-6.184848)"
       id="g5189">
      <rect
         width="875.22754"
         height="219.92101"
         x="64.031998"
         y="434.33029"
         id="rect5183"
         style="fill:#ffffff;fill-opacity:0;stroke:none" />
      <path
         d="m 331.12038,544.03541 -24.23988,0 c -2.458,0 -4.88982,-0.35277 -7.29547,-1.05842 -4.6545,-1.46536 -8.34147,-4.83045 -11.06093,-10.09518 -2.458,-4.77619 -3.68699,-10.3394 -3.68699,-16.68961 0,-6.13301 1.09824,-11.56054 3.29476,-16.28252 2.40566,-5.21035 5.83115,-8.76537 10.27644,-10.66503 3.45162,-1.46538 6.98169,-2.19808 10.59026,-2.19815 l 21.96492,0 0,10.90928 -22.82784,0 c -3.71315,5e-5 -6.40646,2.08964 -8.07996,6.26879 -1.30746,3.25654 -1.96116,7.51711 -1.96116,12.78177 0,4.45059 0.83674,8.2227 2.51029,11.31636 1.93498,3.63644 4.65446,5.45467 8.15838,5.45464 l 22.35718,-0.0815 0,10.33948 m 40.37038,0.24421 -19.14088,0 c -4.65449,0 -8.70753,-2.06244 -12.15915,-6.18734 -3.39933,-4.17925 -5.09901,-8.98258 -5.09901,-14.4101 0,-5.91597 1.85657,-11.01782 5.5697,-15.30558 3.76538,-4.34198 7.94916,-6.51296 12.55135,-6.51299 l 18.19958,0 0,8.71112 -13.33588,0 c -1.67354,5e-5 -3.1117,0.16279 -4.31455,0.48849 -1.15059,0.2714 -2.22265,0.8413 -3.21631,1.70965 -1.83043,1.6283 -2.74562,3.82645 -2.7456,6.59443 l 23.53387,0 0,8.79256 -23.4554,0 c -2e-5,1.30262 0.13072,2.41526 0.39219,3.33792 0.3138,0.86842 0.91521,1.76395 1.80427,2.68664 0.88906,0.86839 1.935,1.46544 3.13783,1.79104 1.25514,0.27142 2.77178,0.40718 4.54993,0.40718 l 13.72806,0 0,7.89698 m 44.73397,-0.24421 -10.90403,0 0,-27.76179 c -4e-5,-0.70556 -0.1569,-1.32971 -0.47066,-1.87248 -0.31382,-0.59699 -0.75834,-1.16688 -1.33361,-1.70967 -1.04596,-0.92264 -2.24879,-1.38398 -3.6085,-1.384 l -10.66869,0 0,32.72794 -10.90403,0 0,-42.1718 20.86669,0 c 3.71309,3e-5 6.40642,0.21711 8.07995,0.65127 2.61484,0.65136 4.70676,2.08963 6.27572,4.31488 1.77806,2.60524 2.66712,5.45469 2.66716,8.54833 l 0,28.65732 m 31.31722,-33.37926 -10.59025,0 0,19.13197 c -1e-5,1.73683 0.57524,3.17511 1.72581,4.31488 1.30742,1.13979 3.03323,1.70966 5.17747,1.70966 l 3.21628,0 0,8.22275 -10.11956,0 c -3.03327,0 -5.62199,-1.13983 -7.76618,-3.4193 -1.25514,-1.35691 -2.06575,-2.84955 -2.43184,-4.47782 -0.36609,-1.62821 -0.54911,-3.55499 -0.54909,-5.78026 l 0,-19.70188 -6.90328,0 0,-8.79254 6.90328,0 0,-14.8171 10.74711,0 0,14.8171 10.59025,0 0,8.79254 m 64.01581,4.80334 c -8e-5,11.07215 -2.95491,18.99631 -8.86446,23.77255 -4.81142,3.8535 -11.81926,5.7803 -21.02359,5.7803 -10.19802,0 -17.72886,-2.22524 -22.59251,-6.67584 -5.33433,-4.88478 -8.00149,-12.72753 -8.00149,-23.5283 0,-8.84681 2.37951,-15.73973 7.1386,-20.6788 5.17742,-5.37318 12.91744,-8.05981 23.22007,-8.05985 11.34853,4e-5 19.35001,2.57812 24.00455,7.73419 4.07915,4.55914 6.11875,11.77773 6.11883,21.65575 m -13.96348,-0.32565 c -4e-5,-5.59029 -1.28133,-10.04084 -3.84384,-13.35166 -2.8764,-3.69067 -7.13865,-5.53601 -12.78675,-5.53607 -5.54354,6e-5 -9.72734,1.98109 -12.55138,5.94311 -2.35342,3.31084 -3.5301,7.62569 -3.53008,12.94462 -2e-5,6.13312 0.94136,10.66511 2.82407,13.59593 2.61483,4.07063 7.45237,6.10595 14.51254,6.10593 5.96186,2e-5 10.14566,-1.98101 12.55139,-5.94311 1.88267,-3.09364 2.82401,-7.6799 2.82405,-13.75875 m 76.75596,11.23495 c -6e-5,4.99332 -1.59513,9.19964 -4.78519,12.61902 -3.19024,3.41933 -7.24326,5.129 -12.15919,5.129 l -38.83087,-0.0815 0,-10.25807 32.00606,0 c 2.14416,2e-5 3.94841,-0.51561 5.41278,-1.54684 1.67348,-1.19403 2.51024,-2.8223 2.51028,-4.88474 -4e-5,-4.83048 -3.29477,-7.24572 -9.88423,-7.24573 l -16.15993,0 c -4.65449,10e-6 -8.73367,-1.49255 -12.2376,-4.47771 -3.50392,-2.98509 -5.2559,-6.78435 -5.2559,-11.39776 0,-5.10183 1.69967,-9.22671 5.099,-12.37471 3.45163,-3.20218 7.97536,-4.80329 13.57119,-4.80335 l 37.10508,0 0,9.7695 -32.71207,0 c -1.46435,5e-5 -2.95485,0.65135 -4.47145,1.95392 -1.46433,1.24835 -2.19651,2.74093 -2.1965,4.47771 -1e-5,1.95392 0.706,3.60931 2.11807,4.96616 1.46431,1.30263 3.21629,1.95392 5.25588,1.9539 l 17.8073,0 c 5.54348,2e-5 9.88414,1.49259 13.0221,4.4777 3.19006,2.93088 4.78513,6.83866 4.78519,11.72342"
         id="text5083-9"
         style="font-size:72.67242432px;font-style:normal;font-variant:normal;font-weight:200;font-stretch:normal;text-align:start;line-height:125%;writing-mode:lr-tb;text-anchor:start;fill:#000000;fill-opacity:1;stroke:none;display:inline;font-family:Denmark;-inkscape-font-specification:Denmark Ultra-Light" />
      <g
         transform="matrix(1.0626262,0,0,1.0538062,198.76246,-518.57609)"
         id="g3664">
        <g
           transform="matrix(0,-1,1,0,-1934.5199,1337.4805)"
           id="g12802">
          <g
             transform="translate(16.279512,-899.16723)"
             id="g12804">
            <g
               transform="matrix(1.0666663,0,0,1,-26.935596,-4.1328125e-5)"
               id="g12806">
              <path
                 d="m 323.36653,2798.1614 -5.40616,5.8005 -5.40616,-5.8005 0,-40.8261 -18.01333,0 23.41949,-24.8979 23.02487,24.8979 -17.6187,0 -10e-6,40.8261 z"
                 id="path12808"
                 style="fill:#932279;fill-opacity:1;fill-rule:evenodd;stroke:none;stroke-width:30;marker:none;visibility:visible;display:inline;overflow:visible" />
            </g>
            <g
               transform="matrix(1.0722788,0,0,1,-28.850792,-4.1328125e-5)"
               clip-path="url(#clipPath4429)"
               id="g12812" />
          </g>
        </g>
        <g
           transform="translate(-351.30671,-902.55818)"
           id="g12768">
          <g
             transform="translate(16.279512,-899.16723)"
             id="g12770">
            <g
               transform="matrix(1.0666663,0,0,1,-26.935596,-4.1328125e-5)"
               id="g12772">
              <path
                 d="m 323.36653,2798.1614 -5.40616,5.8005 -5.40616,-5.8005 0,-40.8261 -18.01333,0 23.41949,-24.8979 23.02487,24.8979 -17.6187,0 -10e-6,40.8261 z"
                 id="path12774"
                 style="fill:#efa724;fill-opacity:1;fill-rule:evenodd;stroke:none;stroke-width:30;marker:none;visibility:visible;display:inline;overflow:visible" />
            </g>
            <g
               transform="matrix(1.0722788,0,0,1,-28.850792,-4.1328125e-5)"
               clip-path="url(#clipPath4429)"
               id="g12778" />
          </g>
        </g>
        <g
           transform="matrix(0,1,-1,0,2787.8992,696.93451)"
           id="g12780">
          <g
             transform="matrix(1.0666663,0,0,1,-26.935596,-4.1328125e-5)"
             id="g12782">
            <path
               d="m 323.36653,2798.1614 -5.40616,5.8005 -5.40616,-5.8005 0,-40.8261 -18.01333,0 23.41949,-24.8979 23.02487,24.8979 -17.6187,0 -10e-6,40.8261 z"
               id="path12784"
               style="fill:#262577;fill-opacity:1;fill-rule:evenodd;stroke:none;stroke-width:30;marker:none;visibility:visible;display:inline;overflow:visible" />
          </g>
          <g
             transform="matrix(1.0722788,0,0,1,-28.850792,-4.1328125e-5)"
             clip-path="url(#clipPath4429)"
             id="g12788" />
        </g>
        <g
           transform="matrix(-1,0,0,-1,305.51863,2920.6937)"
           id="g12790">
          <g
             transform="translate(16.279512,-899.16723)"
             id="g12792">
            <g
               transform="matrix(1.0666663,0,0,1,-26.935596,-4.1328125e-5)"
               id="g12794">
              <path
                 d="m 323.36653,2798.1614 -5.40616,5.8005 -5.40616,-5.8005 0,-40.8261 -18.01333,0 23.41949,-24.8979 23.02487,24.8979 -17.6187,0 -10e-6,40.8261 z"
                 id="path12796"
                 style="fill:#9ccd2a;fill-opacity:1;fill-rule:evenodd;stroke:none;stroke-width:30;marker:none;visibility:visible;display:inline;overflow:visible" />
            </g>
            <g
               transform="matrix(1.0722788,0,0,1,-28.850792,-4.1328125e-5)"
               clip-path="url(#clipPath4429)"
               id="g12800" />
          </g>
        </g>
        <g
           transform="translate(-749.79982,-1331.6428)"
           id="g12742">
          <path
             d="m 671.98437,2285.7893 49.60645,0 0,49.6065 -49.60645,0 0,-49.6065 z"
             id="rect12744"
             style="fill:#9ccd2a;fill-opacity:1;stroke:#ffffff;stroke-width:3.54330707;stroke-linecap:butt;stroke-linejoin:miter;stroke-miterlimit:4;stroke-opacity:1;stroke-dashoffset:0" />
          <path
             d="m 732.22076,2285.7893 49.60645,0 0,49.6065 -49.60645,0 0,-49.6065 z"
             id="rect12746"
             style="fill:#932279;fill-opacity:1;stroke:#ffffff;stroke-width:3.54330707;stroke-linecap:butt;stroke-linejoin:miter;stroke-miterlimit:4;stroke-opacity:1;stroke-dashoffset:0" />
          <path
             d="m 732.22076,2346.0256 49.60645,0 0,49.6065 -49.60645,0 0,-49.6065 z"
             id="rect12748"
             style="fill:#efa724;fill-opacity:1;stroke:#ffffff;stroke-width:3.54330707;stroke-linecap:butt;stroke-linejoin:miter;stroke-miterlimit:4;stroke-opacity:1;stroke-dashoffset:0" />
          <path
             d="m 671.98437,2346.0256 49.60645,0 0,49.6065 -49.60645,0 0,-49.6065 z"
             id="rect12750"
             style="fill:#262577;fill-opacity:1;stroke:#ffffff;stroke-width:3.54330707;stroke-linecap:butt;stroke-linejoin:miter;stroke-miterlimit:4;stroke-opacity:1;stroke-dashoffset:0" />
        </g>
        <path
           d="m -784.62878,642.40875 49.60644,0 0,49.60645 -49.60644,0 0,-49.60645 z"
           transform="matrix(0.7071068,-0.7071068,0.7071068,0.7071068,0,0)"
           id="rect12760"
           style="fill:none;stroke:#ffffff;stroke-width:3.54330707;stroke-linecap:butt;stroke-linejoin:miter;stroke-miterlimit:4;stroke-opacity:1;stroke-dashoffset:0" />
        <path
           d="m -724.39233,642.40875 49.60645,0 0,49.60645 -49.60645,0 0,-49.60645 z"
           transform="matrix(0.7071068,-0.7071068,0.7071068,0.7071068,0,0)"
           id="rect12762"
           style="fill:none;stroke:#ffffff;stroke-width:3.54306793;stroke-linecap:butt;stroke-linejoin:miter;stroke-miterlimit:4;stroke-opacity:1;stroke-dasharray:none;stroke-dashoffset:0" />
        <path
           d="m -15.377623,1009.0679 35.077058,-35.0771 35.077058,35.0771 -35.077058,35.077 -35.077058,-35.077 z"
           id="rect12764"
           style="fill:none;stroke:#ffffff;stroke-width:3.54330707;stroke-linecap:butt;stroke-linejoin:miter;stroke-miterlimit:4;stroke-opacity:1;stroke-dashoffset:0" />
        <path
           d="m -784.62878,702.64508 49.60644,0 0,49.60645 -49.60644,0 0,-49.60645 z"
           transform="matrix(0.7071068,-0.7071068,0.7071068,0.7071068,0,0)"
           id="rect12766"
           style="fill:none;stroke:#ffffff;stroke-width:3.54330707;stroke-linecap:butt;stroke-linejoin:miter;stroke-miterlimit:4;stroke-opacity:1;stroke-dashoffset:0" />
      </g>
      <g
         transform="matrix(1.0042725,0,0,0.99574568,-9.222425e-6,0)"
         id="text6949"
         style="font-size:27.57393646px;font-style:normal;font-variant:normal;font-weight:200;font-stretch:normal;text-align:start;line-height:125%;writing-mode:lr-tb;text-anchor:start;fill:#000000;fill-opacity:1;stroke:none;font-family:Denmark;-inkscape-font-specification:Denmark Thin">
        <path
           d="m 302.37561,576.11495 -7.1968,0 0,16.02046 -4.46698,0 0,-16.02046 -7.0865,0 0,-3.2813 18.75028,0 0,3.2813"
           id="path7622" />
        <path
           d="m 317.23064,582.67755 -0.0276,9.40271 -3.88792,0 0,-8.63064 c -10e-6,-0.25735 -0.009,-0.56066 -0.0276,-0.90994 -0.0184,-0.34926 -0.16545,-0.66177 -0.44118,-0.93751 -0.27575,-0.27573 -0.56068,-0.45037 -0.85479,-0.52391 -0.27575,-0.0919 -0.62502,-0.13786 -1.04781,-0.13787 l -3.2813,-0.0552 0,11.19502 -3.86035,0 0,-19.30175 3.86035,0 0,5.01845 4.77029,0 c 0.79044,2e-5 1.42464,0.0735 1.9026,0.22059 0.47794,0.1287 0.97427,0.43201 1.48899,0.90994 0.53309,0.45958 0.90074,0.98349 1.10296,1.57172 0.2022,0.58825 0.3033,1.31437 0.30332,2.17834"
           id="path7624" />
        <path
           d="m 332.30927,592.16298 -6.72804,0 c -1.63606,0 -3.06071,-0.69854 -4.27396,-2.09562 -1.19487,-1.41545 -1.79231,-3.04232 -1.79231,-4.88058 0,-2.0037 0.65258,-3.73166 1.95775,-5.1839 1.32355,-1.4706 2.79416,-2.2059 4.41183,-2.20592 l 6.39715,0 0,2.95041 -4.68756,0 c -0.58826,10e-6 -1.09378,0.0552 -1.51657,0.16545 -0.40443,0.0919 -0.78127,0.28494 -1.13053,0.57905 -0.6434,0.55149 -0.9651,1.29598 -0.96509,2.23349 l 8.27218,0 0,2.97798 -8.24461,0 c 0,0.44119 0.046,0.81803 0.13787,1.13054 0.11029,0.29412 0.32169,0.59743 0.6342,0.90993 0.3125,0.29413 0.68015,0.49634 1.10296,0.60663 0.44118,0.0919 0.97427,0.13787 1.59929,0.13787 l 4.82544,0 0,2.67467"
           id="path7626" />
        <path
           d="m 361.52644,592.08026 -8.52034,0 c -0.86399,0 -1.71878,-0.11949 -2.56438,-0.35846 -1.63606,-0.49633 -2.93203,-1.63605 -3.88792,-3.41917 -0.86399,-1.61766 -1.29598,-3.50188 -1.29598,-5.65266 0,-2.07722 0.38604,-3.91548 1.15811,-5.51478 0.84559,-1.76472 2.04966,-2.96878 3.61218,-3.61219 1.21325,-0.49631 2.45407,-0.74447 3.72248,-0.74449 l 7.72071,0 0,3.6949 -8.02402,0 c -1.30517,2e-5 -2.25188,0.70775 -2.84012,2.1232 -0.45957,1.10297 -0.68935,2.546 -0.68934,4.3291 -1e-5,1.50739 0.29411,2.78498 0.88236,3.83278 0.68015,1.23164 1.63605,1.84746 2.86769,1.84746 l 7.85857,-0.0276 0,3.50189"
           id="path7628" />
        <path
           d="m 379.7623,584.88346 c -2e-5,2.48166 -0.79047,4.38426 -2.37136,5.70781 -1.45224,1.21325 -3.42837,1.81988 -5.9284,1.81988 -2.50004,0 -4.43941,-0.55148 -5.8181,-1.65444 -1.59929,-1.2684 -2.39893,-3.24453 -2.39893,-5.92839 0,-2.24267 0.86398,-4.0074 2.59195,-5.2942 1.54413,-1.15809 3.44673,-1.73714 5.7078,-1.73716 2.48164,2e-5 4.46697,0.62503 5.95597,1.87503 1.50736,1.23165 2.26105,2.9688 2.26107,5.21147 m -4.27396,-0.0276 c -2e-5,-1.1581 -0.36767,-2.12318 -1.10296,-2.89526 -0.71694,-0.79045 -1.70041,-1.18567 -2.95041,-1.18568 -1.13973,1e-5 -2.08644,0.40443 -2.84012,1.21325 -0.73531,0.79046 -1.10296,1.79231 -1.10296,3.00556 0,1.39708 0.37684,2.50923 1.13053,3.33645 0.75369,0.82722 1.72796,1.24083 2.92284,1.24082 1.36031,10e-6 2.37135,-0.43199 3.03314,-1.29597 0.60661,-0.79045 0.90992,-1.93017 0.90994,-3.41917"
           id="path7630" />
        <path
           d="m 402.46124,592.10784 -3.72248,0 0,-8.96153 c -2e-5,-0.34926 -0.0368,-0.625 -0.1103,-0.82722 -0.0735,-0.2022 -0.22061,-0.4136 -0.44118,-0.6342 -0.22061,-0.23897 -0.4412,-0.40441 -0.66177,-0.49633 -0.22061,-0.11029 -0.47797,-0.16544 -0.77207,-0.16545 l -2.72982,0 0,11.08473 -3.77763,0 0,-11.16745 -4.43941,0 0,11.13987 -3.86035,0 0,-14.2833 15.30354,0 c 0.95588,2e-5 1.70956,0.0919 2.26106,0.27574 0.55146,0.16546 1.09375,0.53311 1.62686,1.10296 0.42278,0.45958 0.74448,0.90995 0.96509,1.35112 0.23895,0.4412 0.35844,0.91914 0.35846,1.43385 l 0,10.14721"
           id="path7632" />
        <path
           d="m 425.83446,592.10784 -3.72248,0 0,-8.96153 c -2e-5,-0.34926 -0.0368,-0.625 -0.11029,-0.82722 -0.0736,-0.2022 -0.22061,-0.4136 -0.44119,-0.6342 -0.22061,-0.23897 -0.4412,-0.40441 -0.66177,-0.49633 -0.22061,-0.11029 -0.47797,-0.16544 -0.77207,-0.16545 l -2.72982,0 0,11.08473 -3.77763,0 0,-11.16745 -4.4394,0 0,11.13987 -3.86036,0 0,-14.2833 15.30354,0 c 0.95588,2e-5 1.70956,0.0919 2.26106,0.27574 0.55146,0.16546 1.09375,0.53311 1.62686,1.10296 0.42278,0.45958 0.74448,0.90995 0.96509,1.35112 0.23895,0.4412 0.35844,0.91914 0.35846,1.43385 l 0,10.14721"
           id="path7634" />
        <path
           d="m 442.01089,592.08026 -7.33467,0 c -1.34194,0 -2.28864,-0.0643 -2.84011,-0.19302 -0.91914,-0.22059 -1.65444,-0.69854 -2.20592,-1.43384 -0.62501,-0.8456 -0.93751,-1.81069 -0.93751,-2.89526 l 0,-9.76118 3.83277,0 0,9.45786 c 0,0.45957 0.20221,0.8548 0.60663,1.18568 0.40441,0.33089 0.8364,0.49634 1.29598,0.49633 l 3.75005,0 0,-11.13987 3.83278,0 0,14.2833"
           id="path7636" />
        <path
           d="m 458.11364,592.08026 -3.83278,0 0,-9.40271 c -1e-5,-0.23897 -0.0552,-0.45037 -0.16544,-0.6342 -0.11031,-0.2022 -0.26656,-0.39522 -0.46876,-0.57905 -0.36766,-0.3125 -0.79046,-0.46875 -1.2684,-0.46876 l -3.75005,0 0,11.08472 -3.83278,0 0,-14.2833 7.33467,0 c 1.30515,2e-5 2.25186,0.0735 2.84011,0.22059 0.91912,0.22061 1.65443,0.70775 2.20592,1.46142 0.62499,0.88238 0.9375,1.84747 0.93751,2.89527 l 0,9.70602"
           id="path7638" />
        <path
           d="m 464.75723,576.1701 -3.8052,0 0,-3.39159 3.8052,0 0,3.39159 m 0.0552,15.91016 -3.86035,0 0,-14.2833 3.86035,0 0,14.2833"
           id="path7640" />
        <path
           d="m 476.12286,580.77495 -3.72248,0 0,6.47987 c -10e-6,0.58825 0.2022,1.07539 0.60662,1.46142 0.45956,0.38604 1.06619,0.57906 1.81988,0.57905 l 1.13053,0 0,2.78497 -3.55703,0 c -1.0662,0 -1.97614,-0.38603 -2.72982,-1.1581 -0.44119,-0.45957 -0.72612,-0.96509 -0.8548,-1.51657 -0.12868,-0.55148 -0.19302,-1.20406 -0.19301,-1.95775 l 0,-6.67289 -2.42651,0 0,-2.97799 2.42651,0 0,-5.01845 3.77763,0 0,5.01845 3.72248,0 0,2.97799"
           id="path7642" />
        <path
           d="m 491.80856,577.79696 -0.0276,14.88993 c -10e-6,0.62501 -0.12869,1.18568 -0.38603,1.68201 -0.25737,0.51471 -0.59745,0.96508 -1.02024,1.35112 -0.6434,0.55148 -1.30517,0.92832 -1.98532,1.13053 -0.68017,0.20221 -1.49819,0.30331 -2.45408,0.30332 l -7.50011,0 0,-2.97799 7.80342,0 c 0.34926,0 0.68015,-0.11949 0.99266,-0.35846 0.42279,-0.33089 0.63419,-0.71692 0.63421,-1.15811 l 0,-0.55147 -4.41183,0 c -0.84561,0 -1.56253,-0.0919 -2.15077,-0.27574 -0.58825,-0.20221 -1.15811,-0.57906 -1.70959,-1.13054 -0.97428,-0.95589 -1.46142,-2.14157 -1.46141,-3.55703 l 0,-9.34757 4.02579,0 -0.0276,9.15455 c -1e-5,0.36766 0.0184,0.6434 0.0551,0.82722 0.0552,0.18383 0.18383,0.38604 0.38604,0.60662 0.22059,0.2206 0.46875,0.37685 0.7445,0.46876 0.27573,0.0735 0.61581,0.1103 1.02023,0.1103 l 3.50189,0 0,-11.16745 3.97065,0"
           id="path7644" />
        <path
           d="m 523.02741,592.08026 -9.40271,0 c -1.45223,0 -2.84931,-0.33089 -4.19124,-0.99266 -1.45223,-0.71692 -2.56437,-1.85664 -3.33644,-3.41917 -0.75369,-1.56252 -1.13053,-3.28129 -1.13053,-5.15632 0,-1.85664 0.36765,-3.53865 1.10295,-5.04604 0.80884,-1.63603 1.93018,-2.8309 3.36402,-3.58461 0.79045,-0.4044 1.54414,-0.68933 2.26107,-0.85479 0.73529,-0.16542 1.5717,-0.24814 2.50923,-0.24816 l 8.71336,0 0,3.41916 -8.05159,0 c -0.71693,2e-5 -1.32356,0.10112 -1.81988,0.30332 -0.47796,0.18384 -0.9559,0.52392 -1.43384,1.02023 -0.47796,0.49635 -0.80885,0.98349 -0.99267,1.46142 -0.18383,0.45958 -0.27574,1.03863 -0.27574,1.73716 l 12.68401,0 0,3.41917 -12.62886,0 c 0,0.62501 0.0827,1.17649 0.24817,1.65443 0.16543,0.45958 0.45956,0.93752 0.88236,1.43385 0.44118,0.49633 0.89155,0.87318 1.35113,1.13053 0.47794,0.25736 1.0386,0.38604 1.68201,0.38603 l 8.46519,0 0,3.33645"
           id="path7646" />
        <path
           d="m 545.40926,592.08026 -6.12141,0 -9.31999,-14.2833 0,14.2833 -4.60485,0 0,-19.30175 6.20414,0 9.15454,14.47631 0,-14.47631 4.68757,0 0,19.30175"
           id="path7648" />
        <path
           d="m 565.45898,576.11495 -7.1968,0 0,16.02046 -4.46697,0 0,-16.02046 -7.08651,0 0,-3.2813 18.75028,0 0,3.2813"
           id="path7650" />
        <path
           d="m 579.12833,592.16298 -6.72804,0 c -1.63606,0 -3.06071,-0.69854 -4.27396,-2.09562 -1.19487,-1.41545 -1.79231,-3.04232 -1.79231,-4.88058 0,-2.0037 0.65259,-3.73166 1.95775,-5.1839 1.32355,-1.4706 2.79416,-2.2059 4.41183,-2.20592 l 6.39716,0 0,2.95041 -4.68757,0 c -0.58826,10e-6 -1.09378,0.0552 -1.51657,0.16545 -0.40442,0.0919 -0.78127,0.28494 -1.13053,0.57905 -0.6434,0.55149 -0.96509,1.29598 -0.96509,2.23349 l 8.27218,0 0,2.97798 -8.2446,0 c -10e-6,0.44119 0.046,0.81803 0.13786,1.13054 0.1103,0.29412 0.32169,0.59743 0.63421,0.90993 0.31249,0.29413 0.68015,0.49634 1.10295,0.60663 0.44118,0.0919 0.97427,0.13787 1.59929,0.13787 l 4.82544,0 0,2.67467"
           id="path7652" />
        <path
           d="m 589.88257,580.88524 -4.27396,0 0,11.19502 -3.8052,0 0,-14.2833 3.83278,0 0,1.98533 c 0.2022,-0.49632 0.45037,-0.90074 0.74449,-1.21326 0.29412,-0.31249 0.68015,-0.55146 1.15811,-0.71692 0.22058,-0.0735 0.45037,-0.13786 0.68935,-0.19302 0.25735,-0.0551 0.5147,-0.0827 0.77207,-0.0827 0.31249,2e-5 0.60661,0.0368 0.88236,0.1103 l 0,3.19857"
           id="path7654" />
        <path
           d="m 606.40454,584.60772 c -10e-6,2.27946 -0.59745,4.09933 -1.7923,5.45964 -1.1765,1.34194 -2.72983,2.0129 -4.66,2.0129 l -4.16366,0 0,5.21148 -3.86035,0 0,-19.49478 7.66555,0 c 2.16914,2e-5 3.86034,0.64341 5.07361,1.93018 1.15809,1.23164 1.73714,2.85851 1.73715,4.88058 m -3.9155,0.2206 c -1e-5,-1.19487 -0.38604,-2.16914 -1.1581,-2.92284 -0.7537,-0.77206 -1.7004,-1.1581 -2.84012,-1.15811 l -2.70224,0 0,8.32733 2.97798,0 c 1.10295,10e-6 1.99451,-0.38603 2.67467,-1.1581 0.69853,-0.79045 1.0478,-1.81988 1.04781,-3.08828"
           id="path7656" />
        <path
           d="m 616.70255,580.88524 -4.27396,0 0,11.19502 -3.8052,0 0,-14.2833 3.83277,0 0,1.98533 c 0.20221,-0.49632 0.45037,-0.90074 0.7445,-1.21326 0.29412,-0.31249 0.68015,-0.55146 1.15811,-0.71692 0.22058,-0.0735 0.45036,-0.13786 0.68934,-0.19302 0.25735,-0.0551 0.51471,-0.0827 0.77207,-0.0827 0.3125,2e-5 0.60662,0.0368 0.88237,0.1103 l 0,3.19857"
           id="path7658" />
        <path
           d="m 622.55338,576.1701 -3.80521,0 0,-3.39159 3.80521,0 0,3.39159 m 0.0551,15.91016 -3.86035,0 0,-14.2833 3.86035,0 0,14.2833"
           id="path7660" />
        <path
           d="m 638.71688,587.72358 c -10e-6,1.21326 -0.39524,2.25187 -1.18568,3.11585 -0.77208,0.86399 -1.75555,1.29598 -2.95041,1.29598 l -9.45786,0 0,-2.59195 7.77585,0 c 0.55147,0 1.01103,-0.13787 1.3787,-0.41361 0.38602,-0.27574 0.57904,-0.67096 0.57905,-1.18568 -10e-6,-1.19486 -0.80885,-1.7923 -2.42651,-1.79231 l -3.97064,0 c -0.84561,10e-6 -1.66363,-0.40441 -2.45408,-1.21325 -0.79046,-0.80883 -1.18568,-1.682 -1.18568,-2.61952 0,-1.32354 0.29412,-2.38973 0.88236,-3.19858 0.68016,-0.91912 1.68201,-1.37868 3.00556,-1.3787 l 9.0994,0 0,2.70225 -8.10674,0 c -0.31251,10e-6 -0.58825,0.15626 -0.82721,0.46876 -0.2206,0.29413 -0.3309,0.63421 -0.33089,1.02023 -10e-6,0.42281 0.14705,0.79046 0.44118,1.10296 0.3125,0.29413 0.68015,0.44119 1.10296,0.44118 l 4.27396,0 c 1.34192,1e-5 2.39892,0.40443 3.171,1.21326 0.79044,0.79046 1.18567,1.8015 1.18568,3.03313"
           id="path7662" />
        <path
           d="m 653.12555,592.16298 -6.72804,0 c -1.63606,0 -3.06071,-0.69854 -4.27396,-2.09562 -1.19487,-1.41545 -1.7923,-3.04232 -1.7923,-4.88058 0,-2.0037 0.65258,-3.73166 1.95775,-5.1839 1.32354,-1.4706 2.79415,-2.2059 4.41183,-2.20592 l 6.39715,0 0,2.95041 -4.68757,0 c -0.58825,10e-6 -1.09377,0.0552 -1.51657,0.16545 -0.40442,0.0919 -0.78126,0.28494 -1.13053,0.57905 -0.6434,0.55149 -0.96509,1.29598 -0.96509,2.23349 l 8.27219,0 0,2.97798 -8.24461,0 c -10e-6,0.44119 0.046,0.81803 0.13787,1.13054 0.11029,0.29412 0.32169,0.59743 0.6342,0.90993 0.3125,0.29413 0.68015,0.49634 1.10296,0.60663 0.44117,0.0919 0.97427,0.13787 1.59928,0.13787 l 4.82544,0 0,2.67467"
           id="path7664" />
        <path
           d="m 687.33361,582.40181 c -2e-5,3.75006 -1.03864,6.43392 -3.11585,8.05159 -1.69122,1.30517 -4.15449,1.95775 -7.38982,1.95775 -3.58462,0 -6.23171,-0.75369 -7.94129,-2.26106 -1.87503,-1.65444 -2.81255,-4.31072 -2.81254,-7.96887 -10e-6,-2.99636 0.8364,-5.33095 2.50922,-7.00378 1.81988,-1.81986 4.5405,-2.7298 8.16189,-2.72982 3.98901,2e-5 6.80155,0.87319 8.43762,2.61952 1.43383,1.54416 2.15075,3.98904 2.15077,7.33467 m -4.90816,-0.1103 c -2e-5,-1.89339 -0.45039,-3.40077 -1.35112,-4.52212 -1.01106,-1.25 -2.50924,-1.87501 -4.49455,-1.87503 -1.94857,2e-5 -3.41918,0.67098 -4.41183,2.0129 -0.82723,1.12135 -1.24084,2.58277 -1.24083,4.38425 -10e-6,2.07725 0.33088,3.6122 0.99266,4.60485 0.91912,1.3787 2.61951,2.06805 5.10118,2.06805 2.0956,0 3.56621,-0.67097 4.41183,-2.0129 0.66176,-1.0478 0.99264,-2.60113 0.99266,-4.66"
           id="path7666" />
        <path
           d="m 703.99042,584.60772 c -2e-5,2.27946 -0.59745,4.09933 -1.79231,5.45964 -1.1765,1.34194 -2.72983,2.0129 -4.65999,2.0129 l -4.16367,0 0,5.21148 -3.86035,0 0,-19.49478 7.66556,0 c 2.16914,2e-5 3.86034,0.64341 5.0736,1.93018 1.15809,1.23164 1.73714,2.85851 1.73716,4.88058 m -3.9155,0.2206 c -10e-6,-1.19487 -0.38605,-2.16914 -1.1581,-2.92284 -0.7537,-0.77206 -1.70041,-1.1581 -2.84012,-1.15811 l -2.70225,0 0,8.32733 2.97799,0 c 1.10295,10e-6 1.9945,-0.38603 2.67467,-1.1581 0.69853,-0.79045 1.0478,-1.81988 1.04781,-3.08828"
           id="path7668" />
        <path
           d="m 718.45209,592.16298 -6.72804,0 c -1.63606,0 -3.06071,-0.69854 -4.27396,-2.09562 -1.19487,-1.41545 -1.79231,-3.04232 -1.79231,-4.88058 0,-2.0037 0.65259,-3.73166 1.95775,-5.1839 1.32355,-1.4706 2.79416,-2.2059 4.41183,-2.20592 l 6.39716,0 0,2.95041 -4.68757,0 c -0.58825,10e-6 -1.09378,0.0552 -1.51657,0.16545 -0.40442,0.0919 -0.78127,0.28494 -1.13053,0.57905 -0.6434,0.55149 -0.96509,1.29598 -0.96509,2.23349 l 8.27218,0 0,2.97798 -8.2446,0 c -10e-6,0.44119 0.046,0.81803 0.13787,1.13054 0.11029,0.29412 0.32169,0.59743 0.6342,0.90993 0.31249,0.29413 0.68015,0.49634 1.10295,0.60663 0.44118,0.0919 0.97427,0.13787 1.59929,0.13787 l 4.82544,0 0,2.67467"
           id="path7670" />
        <path
           d="m 729.20636,580.88524 -4.27396,0 0,11.19502 -3.8052,0 0,-14.2833 3.83278,0 0,1.98533 c 0.2022,-0.49632 0.45037,-0.90074 0.74449,-1.21326 0.29412,-0.31249 0.68016,-0.55146 1.15811,-0.71692 0.22058,-0.0735 0.45037,-0.13786 0.68935,-0.19302 0.25735,-0.0551 0.5147,-0.0827 0.77207,-0.0827 0.31249,2e-5 0.60662,0.0368 0.88236,0.1103 l 0,3.19857"
           id="path7672" />
        <path
           d="m 745.2044,592.10784 -10.31265,0 c -1.15811,0 -2.15077,-0.38604 -2.97799,-1.15811 -0.80883,-0.79045 -1.21325,-1.78311 -1.21325,-2.97799 0,-1.25001 0.36765,-2.27943 1.10296,-3.08828 0.75368,-0.82721 1.69119,-1.24081 2.81254,-1.24082 l 6.67289,0 0,-0.77207 c -10e-6,-0.23897 -0.046,-0.44118 -0.13787,-0.60663 -0.0735,-0.18382 -0.20222,-0.39522 -0.38603,-0.6342 -0.25737,-0.29411 -0.52392,-0.47794 -0.79965,-0.55148 -0.27575,-0.0919 -0.66178,-0.13786 -1.1581,-0.13787 l -7.14165,0 0,-3.14343 6.12141,0 1.18568,0 c 1.34192,2e-5 2.34377,0.1195 3.00556,0.35846 0.66176,0.22061 1.23162,0.56069 1.70958,1.02024 0.60662,0.60664 1.01103,1.26841 1.21326,1.98532 0.20219,0.71693 0.30329,1.63607 0.30331,2.7574 l 0,8.18946 m -3.94307,-2.92284 0,-2.81254 -4.85302,0 c -0.45957,0 -0.85479,0.13787 -1.18568,0.41361 -0.3125,0.25736 -0.46876,0.60663 -0.46875,1.04781 -10e-6,0.38603 0.15625,0.70773 0.46875,0.96508 0.3125,0.25736 0.67096,0.38604 1.07539,0.38604 l 4.96331,0"
           id="path7674" />
        <path
           d="m 756.43992,580.77495 -3.72248,0 0,6.47987 c -10e-6,0.58825 0.2022,1.07539 0.60663,1.46142 0.45955,0.38604 1.06618,0.57906 1.81988,0.57905 l 1.13053,0 0,2.78497 -3.55704,0 c -1.0662,0 -1.97614,-0.38603 -2.72982,-1.1581 -0.44119,-0.45957 -0.72612,-0.96509 -0.85479,-1.51657 -0.12868,-0.55148 -0.19302,-1.20406 -0.19302,-1.95775 l 0,-6.67289 -2.42651,0 0,-2.97799 2.42651,0 0,-5.01845 3.77763,0 0,5.01845 3.72248,0 0,2.97799"
           id="path7676" />
        <path
           d="m 762.25415,576.1701 -3.8052,0 0,-3.39159 3.8052,0 0,3.39159 m 0.0552,15.91016 -3.86035,0 0,-14.2833 3.86035,0 0,14.2833"
           id="path7678" />
        <path
           d="m 778.44523,592.08026 -3.83278,0 0,-9.40271 c -10e-6,-0.23897 -0.0552,-0.45037 -0.16544,-0.6342 -0.11031,-0.2022 -0.26656,-0.39522 -0.46876,-0.57905 -0.36766,-0.3125 -0.79046,-0.46875 -1.2684,-0.46876 l -3.75005,0 0,11.08472 -3.83278,0 0,-14.2833 7.33467,0 c 1.30515,2e-5 2.25186,0.0735 2.84011,0.22059 0.91912,0.22061 1.65442,0.70775 2.20592,1.46142 0.62499,0.88238 0.93749,1.84747 0.93751,2.89527 l 0,9.70602"
           id="path7680" />
        <path
           d="m 795.84264,591.6115 c -10e-6,0.97428 -0.0827,1.76473 -0.24816,2.37136 -0.16546,0.60663 -0.52392,1.20406 -1.07539,1.79231 -0.55149,0.60662 -1.13973,1.01104 -1.76473,1.21325 -0.62502,0.22059 -1.40628,0.33088 -2.34378,0.33089 l -8.21704,0 0,-3.03313 6.92106,0 c 0.23897,-10e-6 0.4136,-10e-6 0.52391,0 0.31249,-10e-6 0.56066,-0.0276 0.74449,-0.0827 0.18382,-0.0368 0.38603,-0.13787 0.60663,-0.30331 0.14705,-0.0919 0.31249,-0.25736 0.49633,-0.49633 0.18382,-0.23898 0.27573,-0.44118 0.27574,-0.60663 l 0,-0.66177 -4.99088,0 c -1.74636,0 -3.20777,-0.75369 -4.38426,-2.26106 -1.10296,-1.41546 -1.65444,-3.0699 -1.65443,-4.96331 -10e-6,-1.93017 0.59743,-3.59379 1.7923,-4.99088 1.21325,-1.41545 2.73901,-2.12318 4.57727,-2.1232 l 8.74094,0 0,13.81454 m -4.02579,-2.59195 -0.0276,-7.96886 -3.39159,0 c -1.01105,1e-5 -1.79231,0.40443 -2.34378,1.21325 -0.55149,0.79046 -0.82723,1.80151 -0.82722,3.03313 -1e-5,0.93752 0.24816,1.74636 0.74449,2.42651 0.64339,0.86399 1.5809,1.29598 2.81254,1.29597 l 3.03314,0"
           id="path7682" />
        <path
           d="m 829.71811,586.09672 c -2e-5,1.6912 -0.56069,3.11585 -1.68201,4.27396 -1.12136,1.1581 -2.54601,1.73716 -4.27396,1.73716 l -13.6491,-0.0276 0,-3.47431 11.25017,0 c 0.75367,0 1.38787,-0.17464 1.9026,-0.52391 0.58823,-0.40441 0.88235,-0.95589 0.88237,-1.65444 -2e-5,-1.63604 -1.15812,-2.45407 -3.47432,-2.45408 l -5.68023,0 c -1.63606,1e-5 -3.0699,-0.50551 -4.30153,-1.51656 -1.23164,-1.01104 -1.84746,-2.29782 -1.84746,-3.86035 0,-1.72796 0.59744,-3.12503 1.79231,-4.19124 1.21325,-1.08456 2.80334,-1.62684 4.77029,-1.62686 l 13.04247,0 0,3.30887 -11.49833,0 c -0.51472,10e-6 -1.03863,0.22061 -1.57171,0.66177 -0.51472,0.42282 -0.77208,0.92834 -0.77207,1.51657 -1e-5,0.66179 0.24815,1.22246 0.74449,1.68201 0.51471,0.44119 1.13053,0.66179 1.84746,0.66177 l 6.25928,0 c 1.94854,2e-5 3.4743,0.50554 4.57727,1.51657 1.12132,0.99267 1.68199,2.31622 1.68201,3.97065"
           id="path7684" />
        <path
           d="m 845.53044,577.79696 -0.0276,14.88993 c -10e-6,0.62501 -0.12869,1.18568 -0.38603,1.68201 -0.25737,0.51471 -0.59745,0.96508 -1.02024,1.35112 -0.6434,0.55148 -1.30518,0.92832 -1.98532,1.13053 -0.68017,0.20221 -1.4982,0.30331 -2.45408,0.30332 l -7.50011,0 0,-2.97799 7.80342,0 c 0.34926,0 0.68015,-0.11949 0.99266,-0.35846 0.42279,-0.33089 0.63419,-0.71692 0.6342,-1.15811 l 0,-0.55147 -4.41183,0 c -0.8456,0 -1.56252,-0.0919 -2.15076,-0.27574 -0.58825,-0.20221 -1.15811,-0.57906 -1.70959,-1.13054 -0.97428,-0.95589 -1.46142,-2.14157 -1.46142,-3.55703 l 0,-9.34757 4.0258,0 -0.0276,9.15455 c 0,0.36766 0.0184,0.6434 0.0552,0.82722 0.0551,0.18383 0.18382,0.38604 0.38604,0.60662 0.22058,0.2206 0.46875,0.37685 0.74449,0.46876 0.27574,0.0735 0.61581,0.1103 1.02024,0.1103 l 3.50189,0 0,-11.16745 3.97065,0"
           id="path7686" />
        <path
           d="m 861.67803,587.72358 c -1e-5,1.21326 -0.39524,2.25187 -1.18568,3.11585 -0.77208,0.86399 -1.75555,1.29598 -2.95041,1.29598 l -9.45786,0 0,-2.59195 7.77585,0 c 0.55147,0 1.01104,-0.13787 1.3787,-0.41361 0.38602,-0.27574 0.57904,-0.67096 0.57905,-1.18568 -10e-6,-1.19486 -0.80884,-1.7923 -2.42651,-1.79231 l -3.97064,0 c -0.84561,10e-6 -1.66363,-0.40441 -2.45408,-1.21325 -0.79046,-0.80883 -1.18568,-1.682 -1.18568,-2.61952 0,-1.32354 0.29412,-2.38973 0.88236,-3.19858 0.68016,-0.91912 1.68201,-1.37868 3.00556,-1.3787 l 9.0994,0 0,2.70225 -8.10674,0 c -0.31251,10e-6 -0.58824,0.15626 -0.82721,0.46876 -0.2206,0.29413 -0.3309,0.63421 -0.33089,1.02023 -10e-6,0.42281 0.14706,0.79046 0.44118,1.10296 0.3125,0.29413 0.68015,0.44119 1.10296,0.44118 l 4.27396,0 c 1.34192,1e-5 2.39892,0.40443 3.171,1.21326 0.79044,0.79046 1.18567,1.8015 1.18568,3.03313"
           id="path7688" />
        <path
           d="m 872.33665,580.77495 -3.72248,0 0,6.47987 c -10e-6,0.58825 0.2022,1.07539 0.60662,1.46142 0.45956,0.38604 1.06619,0.57906 1.81988,0.57905 l 1.13054,0 0,2.78497 -3.55704,0 c -1.0662,0 -1.97614,-0.38603 -2.72982,-1.1581 -0.44119,-0.45957 -0.72612,-0.96509 -0.85479,-1.51657 -0.12869,-0.55148 -0.19302,-1.20406 -0.19302,-1.95775 l 0,-6.67289 -2.42651,0 0,-2.97799 2.42651,0 0,-5.01845 3.77763,0 0,5.01845 3.72248,0 0,2.97799"
           id="path7690" />
        <path
           d="m 886.58847,592.16298 -6.72804,0 c -1.63606,0 -3.06071,-0.69854 -4.27396,-2.09562 -1.19487,-1.41545 -1.7923,-3.04232 -1.7923,-4.88058 0,-2.0037 0.65258,-3.73166 1.95775,-5.1839 1.32354,-1.4706 2.79415,-2.2059 4.41183,-2.20592 l 6.39715,0 0,2.95041 -4.68757,0 c -0.58825,10e-6 -1.09377,0.0552 -1.51657,0.16545 -0.40442,0.0919 -0.78126,0.28494 -1.13053,0.57905 -0.64339,0.55149 -0.96509,1.29598 -0.96508,2.23349 l 8.27218,0 0,2.97798 -8.24461,0 c -10e-6,0.44119 0.0459,0.81803 0.13787,1.13054 0.11029,0.29412 0.32169,0.59743 0.6342,0.90993 0.3125,0.29413 0.68015,0.49634 1.10296,0.60663 0.44117,0.0919 0.97427,0.13787 1.59929,0.13787 l 4.82543,0 0,2.67467"
           id="path7692" />
        <path
           d="m 909.77856,592.10784 -3.72248,0 0,-8.96153 c -2e-5,-0.34926 -0.0368,-0.625 -0.11029,-0.82722 -0.0735,-0.2022 -0.22061,-0.4136 -0.44119,-0.6342 -0.22061,-0.23897 -0.4412,-0.40441 -0.66177,-0.49633 -0.22061,-0.11029 -0.47797,-0.16544 -0.77207,-0.16545 l -2.72982,0 0,11.08473 -3.77763,0 0,-11.16745 -4.4394,0 0,11.13987 -3.86036,0 0,-14.2833 15.30354,0 c 0.95588,2e-5 1.70956,0.0919 2.26106,0.27574 0.55146,0.16546 1.09375,0.53311 1.62686,1.10296 0.42278,0.45958 0.74448,0.90995 0.96509,1.35112 0.23895,0.4412 0.35844,0.91914 0.35846,1.43385 l 0,10.14721"
           id="path7694" />
      </g>
    </g>
  </g>
</svg>
