<?xml version="1.0" encoding="UTF-8" standalone="no"?>
<!-- Created with Inkscape (http://www.inkscape.org/) -->

<svg
   xmlns:svg="http://www.w3.org/2000/svg"
   xmlns="http://www.w3.org/2000/svg"
   version="1.1"
   width="679.38306"
   height="381.5"
   id="svg4300">
  <title
     id="title3601">The CentOS Logo Vertical Version With Tagline</title>
  <defs
     id="defs4302">
    <clipPath
       id="clipPath4429">
      <g
         transform="matrix(0.9947658,0,0,1,1.7860989,0)"
         id="g4431">
        <path
           d="m 322.54143,2800.9375 -4.43505,5.7298 -4.43495,-5.7298 0,-43.1429 -18.93972,0 23.37467,-25.5367 23.13125,25.5367 -18.6962,0 0,43.1429 z"
           id="path4433"
           style="fill:#efa724;fill-opacity:1;fill-rule:evenodd;stroke:none;stroke-width:30;marker:none;visibility:visible;display:inline;overflow:visible" />
      </g>
    </clipPath>
  </defs>
  <g
     transform="translate(165.16,-432.25134)"
     id="layer1">
    <g
       transform="matrix(1.0008826,0,0,1.0094534,-0.05651152,-6.184848)"
       id="g5189">
      <rect
         width="678.78394"
         height="377.92731"
         x="-164.9579"
         y="434.33029"
         id="rect5183"
         style="fill:#ffffff;fill-opacity:0;stroke:none" />
      <path
         d="m 34.585748,736.57263 -34.42470048,0 c -3.49076002,0 -6.94438002,-0.50099 -10.36079952,-1.50315 -6.61016,-2.08105 -11.84629,-6.86004 -15.70838,-14.33684 -3.49077,-6.78298 -5.23614,-14.68369 -5.23614,-23.70205 0,-8.70991 1.55969,-16.41791 4.67911,-23.12391 3.41645,-7.39958 8.28123,-12.44829 14.59428,-15.14615 4.9018695,-2.08108 9.9151695,-3.12164 15.0399395,-3.12173 l 31.1938805,0 0,15.49301 -32.4193605,0 c -5.27329,8e-5 -9.09826,2.96764 -11.47492,8.90273 -1.8567995,4.62484 -2.7851695,10.67556 -2.7851695,18.15227 0,6.32057 1.18832,11.67761 3.5650295,16.07113 2.74799,5.16435 6.61012,7.74654 11.58628,7.7465 l 31.7509505,-0.11569 0,14.68381 m 57.33273,0.34681 -27.18327,0 c -6.61015,0 -12.36616,-2.92902 -17.26804,-8.78705 -4.82761,-5.93524 -7.24144,-12.75678 -7.24144,-20.46477 0,-8.40167 2.63662,-15.64716 7.90989,-21.73649 5.34748,-6.16635 11.28916,-9.24951 17.82504,-9.24955 l 25.84645,0 0,12.37127 -18.93919,0 c -2.3767,6e-5 -4.41913,0.23118 -6.12737,0.69373 -1.63403,0.38543 -3.15655,1.19478 -4.5677,2.42799 -2.59952,2.31246 -3.89924,5.43419 -3.89922,9.36519 l 33.42205,0 0,12.48693 -33.31062,0 c -3e-5,1.84994 0.18564,3.43007 0.55698,4.7404 0.44565,1.23329 1.29975,2.5051 2.56237,3.81547 1.26261,1.23327 2.74802,2.08118 4.45625,2.54358 1.78251,0.38546 3.93638,0.57827 6.46167,0.57827 l 19.49615,0 0,11.21503 m 63.529742,-0.34681 -15.48555,0 0,-39.42641 c -5e-5,-1.00202 -0.22282,-1.88842 -0.6684,-2.65924 -0.44569,-0.84783 -1.07699,-1.65717 -1.89397,-2.42803 -1.48544,-1.31029 -3.19366,-1.96547 -5.12467,-1.9655 l -15.15134,0 0,46.47918 -15.48555,0 0,-59.89105 29.6342,0 c 5.27323,4e-5 9.0982,0.30834 11.47489,0.92492 3.71352,0.92504 6.68439,2.96762 8.91258,6.12785 2.52515,3.69987 3.78776,7.74657 3.78781,12.14006 l 0,40.69822 m 44.47573,-47.40415 -15.03994,0 0,27.1706 c -1e-5,2.46658 0.81694,4.50918 2.45094,6.12786 1.85675,1.61869 4.30769,2.428 7.35287,2.428 l 4.56767,0 0,11.67769 -14.37148,0 c -4.30775,0 -7.98418,-1.61877 -11.02928,-4.856 -1.78252,-1.92702 -2.9337,-4.04683 -3.45362,-6.35924 -0.51991,-2.31234 -0.77984,-5.04868 -0.7798,-8.20894 l 0,-27.97997 -9.80382,0 0,-12.4869 9.80382,0 0,-21.04276 15.2627,0 0,21.04276 15.03994,0 0,12.4869 m 90.9132,6.82154 c -1.1e-4,15.72431 -4.19646,26.97795 -12.58902,33.76101 -6.83302,5.47262 -16.78535,8.209 -29.85703,8.209 -14.48291,0 -25.17796,-3.16021 -32.08517,-9.48082 -7.57565,-6.93722 -11.36346,-18.07523 -11.36346,-33.41413 0,-12.56396 3.37931,-22.35306 10.13802,-29.36738 7.3528,-7.63082 18.34492,-11.44628 32.97639,-11.44634 16.11683,6e-5 27.48027,3.66138 34.0905,10.98385 5.79309,6.47475 8.68966,16.72636 8.68977,30.75481 m -19.83048,-0.46248 c -6e-5,-7.93914 -1.81971,-14.25969 -5.45891,-18.96159 -4.08498,-5.24138 -10.13808,-7.86208 -18.15934,-7.86217 -7.87276,9e-5 -13.81444,2.81349 -17.82505,8.44023 -3.34226,4.70194 -5.01333,10.82977 -5.01331,18.38353 -2e-5,8.71006 1.33688,15.14624 4.01065,19.3085 3.7135,5.78098 10.58361,8.67147 20.61025,8.67144 8.46685,3e-5 14.40854,-2.81336 17.82508,-8.4402 2.6737,-4.3935 4.01057,-10.90676 4.01063,-19.53974 m 109.00635,15.95551 c -9e-5,7.09136 -2.26535,13.06504 -6.79577,17.92115 -4.53068,4.85601 -10.28665,7.28403 -17.26809,7.28403 l -55.14637,-0.11569 0,-14.56819 45.45399,0 c 3.04506,3e-5 5.60741,-0.73224 7.68706,-2.19676 2.37663,-1.69573 3.56496,-4.00813 3.56501,-6.93716 -5e-5,-6.86009 -4.67912,-10.29013 -14.03725,-10.29015 l -22.94984,0 c -6.61014,2e-5 -12.40328,-2.11967 -17.37943,-6.3591 -4.97616,-4.23934 -7.46426,-9.63491 -7.46426,-16.18674 0,-7.24544 2.41381,-13.10348 7.24144,-17.57416 4.90188,-4.54763 11.32634,-6.82148 19.27335,-6.82156 l 52.69547,0 0,13.87432 -46.45665,0 c -2.07961,7e-5 -4.19638,0.92504 -6.3502,2.77491 -2.07961,1.77286 -3.11942,3.89256 -3.1194,6.35907 -2e-5,2.77491 1.00263,5.12585 3.008,7.0528 2.07957,1.84995 4.56768,2.77491 7.46425,2.77487 l 25.28934,0 c 7.87269,4e-5 14.03716,2.11972 18.49358,6.35908 4.53042,4.16234 6.79568,9.71206 6.79577,16.64923"
         id="text5083-9"
         style="font-size:72.67242432px;font-style:normal;font-variant:normal;font-weight:200;font-stretch:normal;text-align:start;line-height:125%;writing-mode:lr-tb;text-anchor:start;fill:#000000;fill-opacity:1;stroke:none;display:inline;font-family:Denmark;-inkscape-font-specification:Denmark Ultra-Light" />
      <g
         transform="matrix(1.0627252,0,0,1.0537063,198.76454,-518.47507)"
         id="g3664">
        <g
           transform="matrix(0,-1,1,0,-1934.5199,1337.4805)"
           id="g12802">
          <g
             transform="translate(16.279512,-899.16723)"
             id="g12804">
            <g
               transform="matrix(1.0666663,0,0,1,-26.935596,-4.1328125e-5)"
               id="g12806">
              <path
                 d="m 323.36653,2798.1614 -5.40616,5.8005 -5.40616,-5.8005 0,-40.8261 -18.01333,0 23.41949,-24.8979 23.02487,24.8979 -17.6187,0 -10e-6,40.8261 z"
                 id="path12808"
                 style="fill:#932279;fill-opacity:1;fill-rule:evenodd;stroke:none;stroke-width:30;marker:none;visibility:visible;display:inline;overflow:visible" />
            </g>
            <g
               transform="matrix(1.0722788,0,0,1,-28.850792,-4.1328125e-5)"
               clip-path="url(#clipPath4429)"
               id="g12812" />
          </g>
        </g>
        <g
           transform="translate(-351.30671,-902.55818)"
           id="g12768">
          <g
             transform="translate(16.279512,-899.16723)"
             id="g12770">
            <g
               transform="matrix(1.0666663,0,0,1,-26.935596,-4.1328125e-5)"
               id="g12772">
              <path
                 d="m 323.36653,2798.1614 -5.40616,5.8005 -5.40616,-5.8005 0,-40.8261 -18.01333,0 23.41949,-24.8979 23.02487,24.8979 -17.6187,0 -10e-6,40.8261 z"
                 id="path12774"
                 style="fill:#efa724;fill-opacity:1;fill-rule:evenodd;stroke:none;stroke-width:30;marker:none;visibility:visible;display:inline;overflow:visible" />
            </g>
            <g
               transform="matrix(1.0722788,0,0,1,-28.850792,-4.1328125e-5)"
               clip-path="url(#clipPath4429)"
               id="g12778" />
          </g>
        </g>
        <g
           transform="matrix(0,1,-1,0,2787.8992,696.93451)"
           id="g12780">
          <g
             transform="matrix(1.0666663,0,0,1,-26.935596,-4.1328125e-5)"
             id="g12782">
            <path
               d="m 323.36653,2798.1614 -5.40616,5.8005 -5.40616,-5.8005 0,-40.8261 -18.01333,0 23.41949,-24.8979 23.02487,24.8979 -17.6187,0 -10e-6,40.8261 z"
               id="path12784"
               style="fill:#262577;fill-opacity:1;fill-rule:evenodd;stroke:none;stroke-width:30;marker:none;visibility:visible;display:inline;overflow:visible" />
          </g>
          <g
             transform="matrix(1.0722788,0,0,1,-28.850792,-4.1328125e-5)"
             clip-path="url(#clipPath4429)"
             id="g12788" />
        </g>
        <g
           transform="matrix(-1,0,0,-1,305.51863,2920.6937)"
           id="g12790">
          <g
             transform="translate(16.279512,-899.16723)"
             id="g12792">
            <g
               transform="matrix(1.0666663,0,0,1,-26.935596,-4.1328125e-5)"
               id="g12794">
              <path
                 d="m 323.36653,2798.1614 -5.40616,5.8005 -5.40616,-5.8005 0,-40.8261 -18.01333,0 23.41949,-24.8979 23.02487,24.8979 -17.6187,0 -10e-6,40.8261 z"
                 id="path12796"
                 style="fill:#9ccd2a;fill-opacity:1;fill-rule:evenodd;stroke:none;stroke-width:30;marker:none;visibility:visible;display:inline;overflow:visible" />
            </g>
            <g
               transform="matrix(1.0722788,0,0,1,-28.850792,-4.1328125e-5)"
               clip-path="url(#clipPath4429)"
               id="g12800" />
          </g>
        </g>
        <g
           transform="translate(-749.79982,-1331.6428)"
           id="g12742">
          <path
             d="m 671.98437,2285.7893 49.60645,0 0,49.6065 -49.60645,0 0,-49.6065 z"
             id="rect12744"
             style="fill:#9ccd2a;fill-opacity:1;stroke:#ffffff;stroke-width:3.54330707;stroke-linecap:butt;stroke-linejoin:miter;stroke-miterlimit:4;stroke-opacity:1;stroke-dashoffset:0" />
          <path
             d="m 732.22076,2285.7893 49.60645,0 0,49.6065 -49.60645,0 0,-49.6065 z"
             id="rect12746"
             style="fill:#932279;fill-opacity:1;stroke:#ffffff;stroke-width:3.54330707;stroke-linecap:butt;stroke-linejoin:miter;stroke-miterlimit:4;stroke-opacity:1;stroke-dashoffset:0" />
          <path
             d="m 732.22076,2346.0256 49.60645,0 0,49.6065 -49.60645,0 0,-49.6065 z"
             id="rect12748"
             style="fill:#efa724;fill-opacity:1;stroke:#ffffff;stroke-width:3.54330707;stroke-linecap:butt;stroke-linejoin:miter;stroke-miterlimit:4;stroke-opacity:1;stroke-dashoffset:0" />
          <path
             d="m 671.98437,2346.0256 49.60645,0 0,49.6065 -49.60645,0 0,-49.6065 z"
             id="rect12750"
             style="fill:#262577;fill-opacity:1;stroke:#ffffff;stroke-width:3.54330707;stroke-linecap:butt;stroke-linejoin:miter;stroke-miterlimit:4;stroke-opacity:1;stroke-dashoffset:0" />
        </g>
        <path
           d="m -784.62878,642.40875 49.60644,0 0,49.60645 -49.60644,0 0,-49.60645 z"
           transform="matrix(0.7071068,-0.7071068,0.7071068,0.7071068,0,0)"
           id="rect12760"
           style="fill:none;stroke:#ffffff;stroke-width:3.54330707;stroke-linecap:butt;stroke-linejoin:miter;stroke-miterlimit:4;stroke-opacity:1;stroke-dashoffset:0" />
        <path
           d="m -724.39233,642.40875 49.60645,0 0,49.60645 -49.60645,0 0,-49.60645 z"
           transform="matrix(0.7071068,-0.7071068,0.7071068,0.7071068,0,0)"
           id="rect12762"
           style="fill:none;stroke:#ffffff;stroke-width:3.54306793;stroke-linecap:butt;stroke-linejoin:miter;stroke-miterlimit:4;stroke-opacity:1;stroke-dasharray:none;stroke-dashoffset:0" />
        <path
           d="m -15.377623,1009.0679 35.077058,-35.0771 35.077058,35.0771 -35.077058,35.077 -35.077058,-35.077 z"
           id="rect12764"
           style="fill:none;stroke:#ffffff;stroke-width:3.54330707;stroke-linecap:butt;stroke-linejoin:miter;stroke-miterlimit:4;stroke-opacity:1;stroke-dashoffset:0" />
        <path
           d="m -784.62878,702.64508 49.60644,0 0,49.60645 -49.60644,0 0,-49.60645 z"
           transform="matrix(0.7071068,-0.7071068,0.7071068,0.7071068,0,0)"
           id="rect12766"
           style="fill:none;stroke:#ffffff;stroke-width:3.54330707;stroke-linecap:butt;stroke-linejoin:miter;stroke-miterlimit:4;stroke-opacity:1;stroke-dashoffset:0" />
      </g>
      <g
         transform="matrix(1.0042725,0,0,0.99574572,-424.81706,192.71357)"
         id="text6949"
         style="font-size:27.57393646px;font-style:normal;font-variant:normal;font-weight:200;font-stretch:normal;text-align:start;line-height:125%;writing-mode:lr-tb;text-anchor:start;fill:#000000;fill-opacity:1;stroke:none;font-family:Denmark;-inkscape-font-specification:Denmark Thin">
        <path
           d="m 302.37561,576.11495 -7.1968,0 0,16.02046 -4.46698,0 0,-16.02046 -7.0865,0 0,-3.2813 18.75028,0 0,3.2813"
           id="path7622" />
        <path
           d="m 317.23064,582.67755 -0.0276,9.40271 -3.88792,0 0,-8.63064 c -10e-6,-0.25735 -0.009,-0.56066 -0.0276,-0.90994 -0.0184,-0.34926 -0.16545,-0.66177 -0.44118,-0.93751 -0.27575,-0.27573 -0.56068,-0.45037 -0.85479,-0.52391 -0.27575,-0.0919 -0.62502,-0.13786 -1.04781,-0.13787 l -3.2813,-0.0552 0,11.19502 -3.86035,0 0,-19.30175 3.86035,0 0,5.01845 4.77029,0 c 0.79044,2e-5 1.42464,0.0735 1.9026,0.22059 0.47794,0.1287 0.97427,0.43201 1.48899,0.90994 0.53309,0.45958 0.90074,0.98349 1.10296,1.57172 0.2022,0.58825 0.3033,1.31437 0.30332,2.17834"
           id="path7624" />
        <path
           d="m 332.30927,592.16298 -6.72804,0 c -1.63606,0 -3.06071,-0.69854 -4.27396,-2.09562 -1.19487,-1.41545 -1.79231,-3.04232 -1.79231,-4.88058 0,-2.0037 0.65258,-3.73166 1.95775,-5.1839 1.32355,-1.4706 2.79416,-2.2059 4.41183,-2.20592 l 6.39715,0 0,2.95041 -4.68756,0 c -0.58826,10e-6 -1.09378,0.0552 -1.51657,0.16545 -0.40443,0.0919 -0.78127,0.28494 -1.13053,0.57905 -0.6434,0.55149 -0.9651,1.29598 -0.96509,2.23349 l 8.27218,0 0,2.97798 -8.24461,0 c 0,0.44119 0.046,0.81803 0.13787,1.13054 0.11029,0.29412 0.32169,0.59743 0.6342,0.90993 0.3125,0.29413 0.68015,0.49634 1.10296,0.60663 0.44118,0.0919 0.97427,0.13787 1.59929,0.13787 l 4.82544,0 0,2.67467"
           id="path7626" />
        <path
           d="m 361.52644,592.08026 -8.52034,0 c -0.86399,0 -1.71878,-0.11949 -2.56438,-0.35846 -1.63606,-0.49633 -2.93203,-1.63605 -3.88792,-3.41917 -0.86399,-1.61766 -1.29598,-3.50188 -1.29598,-5.65266 0,-2.07722 0.38604,-3.91548 1.15811,-5.51478 0.84559,-1.76472 2.04966,-2.96878 3.61218,-3.61219 1.21325,-0.49631 2.45407,-0.74447 3.72248,-0.74449 l 7.72071,0 0,3.6949 -8.02402,0 c -1.30517,2e-5 -2.25188,0.70775 -2.84012,2.1232 -0.45957,1.10297 -0.68935,2.546 -0.68934,4.3291 -1e-5,1.50739 0.29411,2.78498 0.88236,3.83278 0.68015,1.23164 1.63605,1.84746 2.86769,1.84746 l 7.85857,-0.0276 0,3.50189"
           id="path7628" />
        <path
           d="m 379.7623,584.88346 c -2e-5,2.48166 -0.79047,4.38426 -2.37136,5.70781 -1.45224,1.21325 -3.42837,1.81988 -5.9284,1.81988 -2.50004,0 -4.43941,-0.55148 -5.8181,-1.65444 -1.59929,-1.2684 -2.39893,-3.24453 -2.39893,-5.92839 0,-2.24267 0.86398,-4.0074 2.59195,-5.2942 1.54413,-1.15809 3.44673,-1.73714 5.7078,-1.73716 2.48164,2e-5 4.46697,0.62503 5.95597,1.87503 1.50736,1.23165 2.26105,2.9688 2.26107,5.21147 m -4.27396,-0.0276 c -2e-5,-1.1581 -0.36767,-2.12318 -1.10296,-2.89526 -0.71694,-0.79045 -1.70041,-1.18567 -2.95041,-1.18568 -1.13973,1e-5 -2.08644,0.40443 -2.84012,1.21325 -0.73531,0.79046 -1.10296,1.79231 -1.10296,3.00556 0,1.39708 0.37684,2.50923 1.13053,3.33645 0.75369,0.82722 1.72796,1.24083 2.92284,1.24082 1.36031,10e-6 2.37135,-0.43199 3.03314,-1.29597 0.60661,-0.79045 0.90992,-1.93017 0.90994,-3.41917"
           id="path7630" />
        <path
           d="m 402.46124,592.10784 -3.72248,0 0,-8.96153 c -2e-5,-0.34926 -0.0368,-0.625 -0.1103,-0.82722 -0.0735,-0.2022 -0.22061,-0.4136 -0.44118,-0.6342 -0.22061,-0.23897 -0.4412,-0.40441 -0.66177,-0.49633 -0.22061,-0.11029 -0.47797,-0.16544 -0.77207,-0.16545 l -2.72982,0 0,11.08473 -3.77763,0 0,-11.16745 -4.43941,0 0,11.13987 -3.86035,0 0,-14.2833 15.30354,0 c 0.95588,2e-5 1.70956,0.0919 2.26106,0.27574 0.55146,0.16546 1.09375,0.53311 1.62686,1.10296 0.42278,0.45958 0.74448,0.90995 0.96509,1.35112 0.23895,0.4412 0.35844,0.91914 0.35846,1.43385 l 0,10.14721"
           id="path7632" />
        <path
           d="m 425.83446,592.10784 -3.72248,0 0,-8.96153 c -2e-5,-0.34926 -0.0368,-0.625 -0.11029,-0.82722 -0.0736,-0.2022 -0.22061,-0.4136 -0.44119,-0.6342 -0.22061,-0.23897 -0.4412,-0.40441 -0.66177,-0.49633 -0.22061,-0.11029 -0.47797,-0.16544 -0.77207,-0.16545 l -2.72982,0 0,11.08473 -3.77763,0 0,-11.16745 -4.4394,0 0,11.13987 -3.86036,0 0,-14.2833 15.30354,0 c 0.95588,2e-5 1.70956,0.0919 2.26106,0.27574 0.55146,0.16546 1.09375,0.53311 1.62686,1.10296 0.42278,0.45958 0.74448,0.90995 0.96509,1.35112 0.23895,0.4412 0.35844,0.91914 0.35846,1.43385 l 0,10.14721"
           id="path7634" />
        <path
           d="m 442.01089,592.08026 -7.33467,0 c -1.34194,0 -2.28864,-0.0643 -2.84011,-0.19302 -0.91914,-0.22059 -1.65444,-0.69854 -2.20592,-1.43384 -0.62501,-0.8456 -0.93751,-1.81069 -0.93751,-2.89526 l 0,-9.76118 3.83277,0 0,9.45786 c 0,0.45957 0.20221,0.8548 0.60663,1.18568 0.40441,0.33089 0.8364,0.49634 1.29598,0.49633 l 3.75005,0 0,-11.13987 3.83278,0 0,14.2833"
           id="path7636" />
        <path
           d="m 458.11364,592.08026 -3.83278,0 0,-9.40271 c -1e-5,-0.23897 -0.0552,-0.45037 -0.16544,-0.6342 -0.11031,-0.2022 -0.26656,-0.39522 -0.46876,-0.57905 -0.36766,-0.3125 -0.79046,-0.46875 -1.2684,-0.46876 l -3.75005,0 0,11.08472 -3.83278,0 0,-14.2833 7.33467,0 c 1.30515,2e-5 2.25186,0.0735 2.84011,0.22059 0.91912,0.22061 1.65443,0.70775 2.20592,1.46142 0.62499,0.88238 0.9375,1.84747 0.93751,2.89527 l 0,9.70602"
           id="path7638" />
        <path
           d="m 464.75723,576.1701 -3.8052,0 0,-3.39159 3.8052,0 0,3.39159 m 0.0552,15.91016 -3.86035,0 0,-14.2833 3.86035,0 0,14.2833"
           id="path7640" />
        <path
           d="m 476.12286,580.77495 -3.72248,0 0,6.47987 c -10e-6,0.58825 0.2022,1.07539 0.60662,1.46142 0.45956,0.38604 1.06619,0.57906 1.81988,0.57905 l 1.13053,0 0,2.78497 -3.55703,0 c -1.0662,0 -1.97614,-0.38603 -2.72982,-1.1581 -0.44119,-0.45957 -0.72612,-0.96509 -0.8548,-1.51657 -0.12868,-0.55148 -0.19302,-1.20406 -0.19301,-1.95775 l 0,-6.67289 -2.42651,0 0,-2.97799 2.42651,0 0,-5.01845 3.77763,0 0,5.01845 3.72248,0 0,2.97799"
           id="path7642" />
        <path
           d="m 491.80856,577.79696 -0.0276,14.88993 c -10e-6,0.62501 -0.12869,1.18568 -0.38603,1.68201 -0.25737,0.51471 -0.59745,0.96508 -1.02024,1.35112 -0.6434,0.55148 -1.30517,0.92832 -1.98532,1.13053 -0.68017,0.20221 -1.49819,0.30331 -2.45408,0.30332 l -7.50011,0 0,-2.97799 7.80342,0 c 0.34926,0 0.68015,-0.11949 0.99266,-0.35846 0.42279,-0.33089 0.63419,-0.71692 0.63421,-1.15811 l 0,-0.55147 -4.41183,0 c -0.84561,0 -1.56253,-0.0919 -2.15077,-0.27574 -0.58825,-0.20221 -1.15811,-0.57906 -1.70959,-1.13054 -0.97428,-0.95589 -1.46142,-2.14157 -1.46141,-3.55703 l 0,-9.34757 4.02579,0 -0.0276,9.15455 c -1e-5,0.36766 0.0184,0.6434 0.0551,0.82722 0.0552,0.18383 0.18383,0.38604 0.38604,0.60662 0.22059,0.2206 0.46875,0.37685 0.7445,0.46876 0.27573,0.0735 0.61581,0.1103 1.02023,0.1103 l 3.50189,0 0,-11.16745 3.97065,0"
           id="path7644" />
        <path
           d="m 523.02741,592.08026 -9.40271,0 c -1.45223,0 -2.84931,-0.33089 -4.19124,-0.99266 -1.45223,-0.71692 -2.56437,-1.85664 -3.33644,-3.41917 -0.75369,-1.56252 -1.13053,-3.28129 -1.13053,-5.15632 0,-1.85664 0.36765,-3.53865 1.10295,-5.04604 0.80884,-1.63603 1.93018,-2.8309 3.36402,-3.58461 0.79045,-0.4044 1.54414,-0.68933 2.26107,-0.85479 0.73529,-0.16542 1.5717,-0.24814 2.50923,-0.24816 l 8.71336,0 0,3.41916 -8.05159,0 c -0.71693,2e-5 -1.32356,0.10112 -1.81988,0.30332 -0.47796,0.18384 -0.9559,0.52392 -1.43384,1.02023 -0.47796,0.49635 -0.80885,0.98349 -0.99267,1.46142 -0.18383,0.45958 -0.27574,1.03863 -0.27574,1.73716 l 12.68401,0 0,3.41917 -12.62886,0 c 0,0.62501 0.0827,1.17649 0.24817,1.65443 0.16543,0.45958 0.45956,0.93752 0.88236,1.43385 0.44118,0.49633 0.89155,0.87318 1.35113,1.13053 0.47794,0.25736 1.0386,0.38604 1.68201,0.38603 l 8.46519,0 0,3.33645"
           id="path7646" />
        <path
           d="m 545.40926,592.08026 -6.12141,0 -9.31999,-14.2833 0,14.2833 -4.60485,0 0,-19.30175 6.20414,0 9.15454,14.47631 0,-14.47631 4.68757,0 0,19.30175"
           id="path7648" />
        <path
           d="m 565.45898,576.11495 -7.1968,0 0,16.02046 -4.46697,0 0,-16.02046 -7.08651,0 0,-3.2813 18.75028,0 0,3.2813"
           id="path7650" />
        <path
           d="m 579.12833,592.16298 -6.72804,0 c -1.63606,0 -3.06071,-0.69854 -4.27396,-2.09562 -1.19487,-1.41545 -1.79231,-3.04232 -1.79231,-4.88058 0,-2.0037 0.65259,-3.73166 1.95775,-5.1839 1.32355,-1.4706 2.79416,-2.2059 4.41183,-2.20592 l 6.39716,0 0,2.95041 -4.68757,0 c -0.58826,10e-6 -1.09378,0.0552 -1.51657,0.16545 -0.40442,0.0919 -0.78127,0.28494 -1.13053,0.57905 -0.6434,0.55149 -0.96509,1.29598 -0.96509,2.23349 l 8.27218,0 0,2.97798 -8.2446,0 c -10e-6,0.44119 0.046,0.81803 0.13786,1.13054 0.1103,0.29412 0.32169,0.59743 0.63421,0.90993 0.31249,0.29413 0.68015,0.49634 1.10295,0.60663 0.44118,0.0919 0.97427,0.13787 1.59929,0.13787 l 4.82544,0 0,2.67467"
           id="path7652" />
        <path
           d="m 589.88257,580.88524 -4.27396,0 0,11.19502 -3.8052,0 0,-14.2833 3.83278,0 0,1.98533 c 0.2022,-0.49632 0.45037,-0.90074 0.74449,-1.21326 0.29412,-0.31249 0.68015,-0.55146 1.15811,-0.71692 0.22058,-0.0735 0.45037,-0.13786 0.68935,-0.19302 0.25735,-0.0551 0.5147,-0.0827 0.77207,-0.0827 0.31249,2e-5 0.60661,0.0368 0.88236,0.1103 l 0,3.19857"
           id="path7654" />
        <path
           d="m 606.40454,584.60772 c -10e-6,2.27946 -0.59745,4.09933 -1.7923,5.45964 -1.1765,1.34194 -2.72983,2.0129 -4.66,2.0129 l -4.16366,0 0,5.21148 -3.86035,0 0,-19.49478 7.66555,0 c 2.16914,2e-5 3.86034,0.64341 5.07361,1.93018 1.15809,1.23164 1.73714,2.85851 1.73715,4.88058 m -3.9155,0.2206 c -1e-5,-1.19487 -0.38604,-2.16914 -1.1581,-2.92284 -0.7537,-0.77206 -1.7004,-1.1581 -2.84012,-1.15811 l -2.70224,0 0,8.32733 2.97798,0 c 1.10295,10e-6 1.99451,-0.38603 2.67467,-1.1581 0.69853,-0.79045 1.0478,-1.81988 1.04781,-3.08828"
           id="path7656" />
        <path
           d="m 616.70255,580.88524 -4.27396,0 0,11.19502 -3.8052,0 0,-14.2833 3.83277,0 0,1.98533 c 0.20221,-0.49632 0.45037,-0.90074 0.7445,-1.21326 0.29412,-0.31249 0.68015,-0.55146 1.15811,-0.71692 0.22058,-0.0735 0.45036,-0.13786 0.68934,-0.19302 0.25735,-0.0551 0.51471,-0.0827 0.77207,-0.0827 0.3125,2e-5 0.60662,0.0368 0.88237,0.1103 l 0,3.19857"
           id="path7658" />
        <path
           d="m 622.55338,576.1701 -3.80521,0 0,-3.39159 3.80521,0 0,3.39159 m 0.0551,15.91016 -3.86035,0 0,-14.2833 3.86035,0 0,14.2833"
           id="path7660" />
        <path
           d="m 638.71688,587.72358 c -10e-6,1.21326 -0.39524,2.25187 -1.18568,3.11585 -0.77208,0.86399 -1.75555,1.29598 -2.95041,1.29598 l -9.45786,0 0,-2.59195 7.77585,0 c 0.55147,0 1.01103,-0.13787 1.3787,-0.41361 0.38602,-0.27574 0.57904,-0.67096 0.57905,-1.18568 -10e-6,-1.19486 -0.80885,-1.7923 -2.42651,-1.79231 l -3.97064,0 c -0.84561,10e-6 -1.66363,-0.40441 -2.45408,-1.21325 -0.79046,-0.80883 -1.18568,-1.682 -1.18568,-2.61952 0,-1.32354 0.29412,-2.38973 0.88236,-3.19858 0.68016,-0.91912 1.68201,-1.37868 3.00556,-1.3787 l 9.0994,0 0,2.70225 -8.10674,0 c -0.31251,10e-6 -0.58825,0.15626 -0.82721,0.46876 -0.2206,0.29413 -0.3309,0.63421 -0.33089,1.02023 -10e-6,0.42281 0.14705,0.79046 0.44118,1.10296 0.3125,0.29413 0.68015,0.44119 1.10296,0.44118 l 4.27396,0 c 1.34192,1e-5 2.39892,0.40443 3.171,1.21326 0.79044,0.79046 1.18567,1.8015 1.18568,3.03313"
           id="path7662" />
        <path
           d="m 653.12555,592.16298 -6.72804,0 c -1.63606,0 -3.06071,-0.69854 -4.27396,-2.09562 -1.19487,-1.41545 -1.7923,-3.04232 -1.7923,-4.88058 0,-2.0037 0.65258,-3.73166 1.95775,-5.1839 1.32354,-1.4706 2.79415,-2.2059 4.41183,-2.20592 l 6.39715,0 0,2.95041 -4.68757,0 c -0.58825,10e-6 -1.09377,0.0552 -1.51657,0.16545 -0.40442,0.0919 -0.78126,0.28494 -1.13053,0.57905 -0.6434,0.55149 -0.96509,1.29598 -0.96509,2.23349 l 8.27219,0 0,2.97798 -8.24461,0 c -10e-6,0.44119 0.046,0.81803 0.13787,1.13054 0.11029,0.29412 0.32169,0.59743 0.6342,0.90993 0.3125,0.29413 0.68015,0.49634 1.10296,0.60663 0.44117,0.0919 0.97427,0.13787 1.59928,0.13787 l 4.82544,0 0,2.67467"
           id="path7664" />
        <path
           d="m 687.33361,582.40181 c -2e-5,3.75006 -1.03864,6.43392 -3.11585,8.05159 -1.69122,1.30517 -4.15449,1.95775 -7.38982,1.95775 -3.58462,0 -6.23171,-0.75369 -7.94129,-2.26106 -1.87503,-1.65444 -2.81255,-4.31072 -2.81254,-7.96887 -10e-6,-2.99636 0.8364,-5.33095 2.50922,-7.00378 1.81988,-1.81986 4.5405,-2.7298 8.16189,-2.72982 3.98901,2e-5 6.80155,0.87319 8.43762,2.61952 1.43383,1.54416 2.15075,3.98904 2.15077,7.33467 m -4.90816,-0.1103 c -2e-5,-1.89339 -0.45039,-3.40077 -1.35112,-4.52212 -1.01106,-1.25 -2.50924,-1.87501 -4.49455,-1.87503 -1.94857,2e-5 -3.41918,0.67098 -4.41183,2.0129 -0.82723,1.12135 -1.24084,2.58277 -1.24083,4.38425 -10e-6,2.07725 0.33088,3.6122 0.99266,4.60485 0.91912,1.3787 2.61951,2.06805 5.10118,2.06805 2.0956,0 3.56621,-0.67097 4.41183,-2.0129 0.66176,-1.0478 0.99264,-2.60113 0.99266,-4.66"
           id="path7666" />
        <path
           d="m 703.99042,584.60772 c -2e-5,2.27946 -0.59745,4.09933 -1.79231,5.45964 -1.1765,1.34194 -2.72983,2.0129 -4.65999,2.0129 l -4.16367,0 0,5.21148 -3.86035,0 0,-19.49478 7.66556,0 c 2.16914,2e-5 3.86034,0.64341 5.0736,1.93018 1.15809,1.23164 1.73714,2.85851 1.73716,4.88058 m -3.9155,0.2206 c -10e-6,-1.19487 -0.38605,-2.16914 -1.1581,-2.92284 -0.7537,-0.77206 -1.70041,-1.1581 -2.84012,-1.15811 l -2.70225,0 0,8.32733 2.97799,0 c 1.10295,10e-6 1.9945,-0.38603 2.67467,-1.1581 0.69853,-0.79045 1.0478,-1.81988 1.04781,-3.08828"
           id="path7668" />
        <path
           d="m 718.45209,592.16298 -6.72804,0 c -1.63606,0 -3.06071,-0.69854 -4.27396,-2.09562 -1.19487,-1.41545 -1.79231,-3.04232 -1.79231,-4.88058 0,-2.0037 0.65259,-3.73166 1.95775,-5.1839 1.32355,-1.4706 2.79416,-2.2059 4.41183,-2.20592 l 6.39716,0 0,2.95041 -4.68757,0 c -0.58825,10e-6 -1.09378,0.0552 -1.51657,0.16545 -0.40442,0.0919 -0.78127,0.28494 -1.13053,0.57905 -0.6434,0.55149 -0.96509,1.29598 -0.96509,2.23349 l 8.27218,0 0,2.97798 -8.2446,0 c -10e-6,0.44119 0.046,0.81803 0.13787,1.13054 0.11029,0.29412 0.32169,0.59743 0.6342,0.90993 0.31249,0.29413 0.68015,0.49634 1.10295,0.60663 0.44118,0.0919 0.97427,0.13787 1.59929,0.13787 l 4.82544,0 0,2.67467"
           id="path7670" />
        <path
           d="m 729.20636,580.88524 -4.27396,0 0,11.19502 -3.8052,0 0,-14.2833 3.83278,0 0,1.98533 c 0.2022,-0.49632 0.45037,-0.90074 0.74449,-1.21326 0.29412,-0.31249 0.68016,-0.55146 1.15811,-0.71692 0.22058,-0.0735 0.45037,-0.13786 0.68935,-0.19302 0.25735,-0.0551 0.5147,-0.0827 0.77207,-0.0827 0.31249,2e-5 0.60662,0.0368 0.88236,0.1103 l 0,3.19857"
           id="path7672" />
        <path
           d="m 745.2044,592.10784 -10.31265,0 c -1.15811,0 -2.15077,-0.38604 -2.97799,-1.15811 -0.80883,-0.79045 -1.21325,-1.78311 -1.21325,-2.97799 0,-1.25001 0.36765,-2.27943 1.10296,-3.08828 0.75368,-0.82721 1.69119,-1.24081 2.81254,-1.24082 l 6.67289,0 0,-0.77207 c -10e-6,-0.23897 -0.046,-0.44118 -0.13787,-0.60663 -0.0735,-0.18382 -0.20222,-0.39522 -0.38603,-0.6342 -0.25737,-0.29411 -0.52392,-0.47794 -0.79965,-0.55148 -0.27575,-0.0919 -0.66178,-0.13786 -1.1581,-0.13787 l -7.14165,0 0,-3.14343 6.12141,0 1.18568,0 c 1.34192,2e-5 2.34377,0.1195 3.00556,0.35846 0.66176,0.22061 1.23162,0.56069 1.70958,1.02024 0.60662,0.60664 1.01103,1.26841 1.21326,1.98532 0.20219,0.71693 0.30329,1.63607 0.30331,2.7574 l 0,8.18946 m -3.94307,-2.92284 0,-2.81254 -4.85302,0 c -0.45957,0 -0.85479,0.13787 -1.18568,0.41361 -0.3125,0.25736 -0.46876,0.60663 -0.46875,1.04781 -10e-6,0.38603 0.15625,0.70773 0.46875,0.96508 0.3125,0.25736 0.67096,0.38604 1.07539,0.38604 l 4.96331,0"
           id="path7674" />
        <path
           d="m 756.43992,580.77495 -3.72248,0 0,6.47987 c -10e-6,0.58825 0.2022,1.07539 0.60663,1.46142 0.45955,0.38604 1.06618,0.57906 1.81988,0.57905 l 1.13053,0 0,2.78497 -3.55704,0 c -1.0662,0 -1.97614,-0.38603 -2.72982,-1.1581 -0.44119,-0.45957 -0.72612,-0.96509 -0.85479,-1.51657 -0.12868,-0.55148 -0.19302,-1.20406 -0.19302,-1.95775 l 0,-6.67289 -2.42651,0 0,-2.97799 2.42651,0 0,-5.01845 3.77763,0 0,5.01845 3.72248,0 0,2.97799"
           id="path7676" />
        <path
           d="m 762.25415,576.1701 -3.8052,0 0,-3.39159 3.8052,0 0,3.39159 m 0.0552,15.91016 -3.86035,0 0,-14.2833 3.86035,0 0,14.2833"
           id="path7678" />
        <path
           d="m 778.44523,592.08026 -3.83278,0 0,-9.40271 c -10e-6,-0.23897 -0.0552,-0.45037 -0.16544,-0.6342 -0.11031,-0.2022 -0.26656,-0.39522 -0.46876,-0.57905 -0.36766,-0.3125 -0.79046,-0.46875 -1.2684,-0.46876 l -3.75005,0 0,11.08472 -3.83278,0 0,-14.2833 7.33467,0 c 1.30515,2e-5 2.25186,0.0735 2.84011,0.22059 0.91912,0.22061 1.65442,0.70775 2.20592,1.46142 0.62499,0.88238 0.93749,1.84747 0.93751,2.89527 l 0,9.70602"
           id="path7680" />
        <path
           d="m 795.84264,591.6115 c -10e-6,0.97428 -0.0827,1.76473 -0.24816,2.37136 -0.16546,0.60663 -0.52392,1.20406 -1.07539,1.79231 -0.55149,0.60662 -1.13973,1.01104 -1.76473,1.21325 -0.62502,0.22059 -1.40628,0.33088 -2.34378,0.33089 l -8.21704,0 0,-3.03313 6.92106,0 c 0.23897,-10e-6 0.4136,-10e-6 0.52391,0 0.31249,-10e-6 0.56066,-0.0276 0.74449,-0.0827 0.18382,-0.0368 0.38603,-0.13787 0.60663,-0.30331 0.14705,-0.0919 0.31249,-0.25736 0.49633,-0.49633 0.18382,-0.23898 0.27573,-0.44118 0.27574,-0.60663 l 0,-0.66177 -4.99088,0 c -1.74636,0 -3.20777,-0.75369 -4.38426,-2.26106 -1.10296,-1.41546 -1.65444,-3.0699 -1.65443,-4.96331 -10e-6,-1.93017 0.59743,-3.59379 1.7923,-4.99088 1.21325,-1.41545 2.73901,-2.12318 4.57727,-2.1232 l 8.74094,0 0,13.81454 m -4.02579,-2.59195 -0.0276,-7.96886 -3.39159,0 c -1.01105,1e-5 -1.79231,0.40443 -2.34378,1.21325 -0.55149,0.79046 -0.82723,1.80151 -0.82722,3.03313 -1e-5,0.93752 0.24816,1.74636 0.74449,2.42651 0.64339,0.86399 1.5809,1.29598 2.81254,1.29597 l 3.03314,0"
           id="path7682" />
        <path
           d="m 829.71811,586.09672 c -2e-5,1.6912 -0.56069,3.11585 -1.68201,4.27396 -1.12136,1.1581 -2.54601,1.73716 -4.27396,1.73716 l -13.6491,-0.0276 0,-3.47431 11.25017,0 c 0.75367,0 1.38787,-0.17464 1.9026,-0.52391 0.58823,-0.40441 0.88235,-0.95589 0.88237,-1.65444 -2e-5,-1.63604 -1.15812,-2.45407 -3.47432,-2.45408 l -5.68023,0 c -1.63606,1e-5 -3.0699,-0.50551 -4.30153,-1.51656 -1.23164,-1.01104 -1.84746,-2.29782 -1.84746,-3.86035 0,-1.72796 0.59744,-3.12503 1.79231,-4.19124 1.21325,-1.08456 2.80334,-1.62684 4.77029,-1.62686 l 13.04247,0 0,3.30887 -11.49833,0 c -0.51472,10e-6 -1.03863,0.22061 -1.57171,0.66177 -0.51472,0.42282 -0.77208,0.92834 -0.77207,1.51657 -1e-5,0.66179 0.24815,1.22246 0.74449,1.68201 0.51471,0.44119 1.13053,0.66179 1.84746,0.66177 l 6.25928,0 c 1.94854,2e-5 3.4743,0.50554 4.57727,1.51657 1.12132,0.99267 1.68199,2.31622 1.68201,3.97065"
           id="path7684" />
        <path
           d="m 845.53044,577.79696 -0.0276,14.88993 c -10e-6,0.62501 -0.12869,1.18568 -0.38603,1.68201 -0.25737,0.51471 -0.59745,0.96508 -1.02024,1.35112 -0.6434,0.55148 -1.30518,0.92832 -1.98532,1.13053 -0.68017,0.20221 -1.4982,0.30331 -2.45408,0.30332 l -7.50011,0 0,-2.97799 7.80342,0 c 0.34926,0 0.68015,-0.11949 0.99266,-0.35846 0.42279,-0.33089 0.63419,-0.71692 0.6342,-1.15811 l 0,-0.55147 -4.41183,0 c -0.8456,0 -1.56252,-0.0919 -2.15076,-0.27574 -0.58825,-0.20221 -1.15811,-0.57906 -1.70959,-1.13054 -0.97428,-0.95589 -1.46142,-2.14157 -1.46142,-3.55703 l 0,-9.34757 4.0258,0 -0.0276,9.15455 c 0,0.36766 0.0184,0.6434 0.0552,0.82722 0.0551,0.18383 0.18382,0.38604 0.38604,0.60662 0.22058,0.2206 0.46875,0.37685 0.74449,0.46876 0.27574,0.0735 0.61581,0.1103 1.02024,0.1103 l 3.50189,0 0,-11.16745 3.97065,0"
           id="path7686" />
        <path
           d="m 861.67803,587.72358 c -1e-5,1.21326 -0.39524,2.25187 -1.18568,3.11585 -0.77208,0.86399 -1.75555,1.29598 -2.95041,1.29598 l -9.45786,0 0,-2.59195 7.77585,0 c 0.55147,0 1.01104,-0.13787 1.3787,-0.41361 0.38602,-0.27574 0.57904,-0.67096 0.57905,-1.18568 -10e-6,-1.19486 -0.80884,-1.7923 -2.42651,-1.79231 l -3.97064,0 c -0.84561,10e-6 -1.66363,-0.40441 -2.45408,-1.21325 -0.79046,-0.80883 -1.18568,-1.682 -1.18568,-2.61952 0,-1.32354 0.29412,-2.38973 0.88236,-3.19858 0.68016,-0.91912 1.68201,-1.37868 3.00556,-1.3787 l 9.0994,0 0,2.70225 -8.10674,0 c -0.31251,10e-6 -0.58824,0.15626 -0.82721,0.46876 -0.2206,0.29413 -0.3309,0.63421 -0.33089,1.02023 -10e-6,0.42281 0.14706,0.79046 0.44118,1.10296 0.3125,0.29413 0.68015,0.44119 1.10296,0.44118 l 4.27396,0 c 1.34192,1e-5 2.39892,0.40443 3.171,1.21326 0.79044,0.79046 1.18567,1.8015 1.18568,3.03313"
           id="path7688" />
        <path
           d="m 872.33665,580.77495 -3.72248,0 0,6.47987 c -10e-6,0.58825 0.2022,1.07539 0.60662,1.46142 0.45956,0.38604 1.06619,0.57906 1.81988,0.57905 l 1.13054,0 0,2.78497 -3.55704,0 c -1.0662,0 -1.97614,-0.38603 -2.72982,-1.1581 -0.44119,-0.45957 -0.72612,-0.96509 -0.85479,-1.51657 -0.12869,-0.55148 -0.19302,-1.20406 -0.19302,-1.95775 l 0,-6.67289 -2.42651,0 0,-2.97799 2.42651,0 0,-5.01845 3.77763,0 0,5.01845 3.72248,0 0,2.97799"
           id="path7690" />
        <path
           d="m 886.58847,592.16298 -6.72804,0 c -1.63606,0 -3.06071,-0.69854 -4.27396,-2.09562 -1.19487,-1.41545 -1.7923,-3.04232 -1.7923,-4.88058 0,-2.0037 0.65258,-3.73166 1.95775,-5.1839 1.32354,-1.4706 2.79415,-2.2059 4.41183,-2.20592 l 6.39715,0 0,2.95041 -4.68757,0 c -0.58825,10e-6 -1.09377,0.0552 -1.51657,0.16545 -0.40442,0.0919 -0.78126,0.28494 -1.13053,0.57905 -0.64339,0.55149 -0.96509,1.29598 -0.96508,2.23349 l 8.27218,0 0,2.97798 -8.24461,0 c -10e-6,0.44119 0.0459,0.81803 0.13787,1.13054 0.11029,0.29412 0.32169,0.59743 0.6342,0.90993 0.3125,0.29413 0.68015,0.49634 1.10296,0.60663 0.44117,0.0919 0.97427,0.13787 1.59929,0.13787 l 4.82543,0 0,2.67467"
           id="path7692" />
        <path
           d="m 909.77856,592.10784 -3.72248,0 0,-8.96153 c -2e-5,-0.34926 -0.0368,-0.625 -0.11029,-0.82722 -0.0735,-0.2022 -0.22061,-0.4136 -0.44119,-0.6342 -0.22061,-0.23897 -0.4412,-0.40441 -0.66177,-0.49633 -0.22061,-0.11029 -0.47797,-0.16544 -0.77207,-0.16545 l -2.72982,0 0,11.08473 -3.77763,0 0,-11.16745 -4.4394,0 0,11.13987 -3.86036,0 0,-14.2833 15.30354,0 c 0.95588,2e-5 1.70956,0.0919 2.26106,0.27574 0.55146,0.16546 1.09375,0.53311 1.62686,1.10296 0.42278,0.45958 0.74448,0.90995 0.96509,1.35112 0.23895,0.4412 0.35844,0.91914 0.35846,1.43385 l 0,10.14721"
           id="path7694" />
      </g>
    </g>
  </g>
</svg>
